<?xml version="1.0" encoding="UTF-8" standalone="no"?>
<!DOCTYPE svg PUBLIC "-//W3C//DTD SVG 1.1//EN"
 "http://www.w3.org/Graphics/SVG/1.1/DTD/svg11.dtd">
<!-- Generated by graphviz version 12.2.1 (20241206.2353)
 -->
<!-- Title: G Pages: 1 -->
<svg width="214pt" height="214pt"
 viewBox="0.00 0.00 214.00 214.00" xmlns="http://www.w3.org/2000/svg" xmlns:xlink="http://www.w3.org/1999/xlink">
<g id="graph0" class="graph" transform="scale(1 1) rotate(0) translate(4 210)">
<title>G</title>
<!-- node_0 -->
<g id="node1" class="node">
<title>node_0</title>
<polygon fill="none" stroke="black" points="103,-206 71.95,-169.25 134.05,-169.25 103,-206"/>
<text text-anchor="middle" x="103" y="-176.45" font-family="Times,serif" font-size="14.00">1</text>
</g>
<!-- node_1 -->
<g id="node2" class="node">
<title>node_1</title>
<polygon fill="none" stroke="black" points="54,-114.5 0,-114.5 0,-78.5 54,-78.5 54,-114.5"/>
<text text-anchor="middle" x="27" y="-91.45" font-family="Times,serif" font-size="14.00">1</text>
</g>
<!-- node_0&#45;&gt;node_1 -->
<g id="edge1" class="edge">
<title>node_0&#45;&gt;node_1</title>
<path fill="none" stroke="black" d="M92.43,-168.96C81.56,-157.08 64.26,-138.2 50.19,-122.82"/>
<polygon fill="black" stroke="black" points="53.12,-120.84 43.78,-115.83 47.95,-125.57 53.12,-120.84"/>
</g>
<!-- node_2 -->
<g id="node3" class="node">
<title>node_2</title>
<polygon fill="none" stroke="black" points="103,-121 71.95,-84.25 134.05,-84.25 103,-121"/>
<text text-anchor="middle" x="103" y="-91.45" font-family="Times,serif" font-size="14.00">2</text>
</g>
<!-- node_0&#45;&gt;node_2 -->
<g id="edge2" class="edge">
<title>node_0&#45;&gt;node_2</title>
<path fill="none" stroke="black" d="M103,-168.96C103,-159.61 103,-145.93 103,-133.03"/>
<polygon fill="black" stroke="black" points="106.5,-133.07 103,-123.07 99.5,-133.07 106.5,-133.07"/>
</g>
<!-- node_6 -->
<g id="node7" class="node">
<title>node_6</title>
<polygon fill="none" stroke="black" points="206,-114.5 152,-114.5 152,-78.5 206,-78.5 206,-114.5"/>
<text text-anchor="middle" x="179" y="-91.45" font-family="Times,serif" font-size="14.00">2</text>
</g>
<!-- node_0&#45;&gt;node_6 -->
<g id="edge3" class="edge">
<title>node_0&#45;&gt;node_6</title>
<path fill="none" stroke="black" d="M113.57,-168.96C124.44,-157.08 141.74,-138.2 155.81,-122.82"/>
<polygon fill="black" stroke="black" points="158.05,-125.57 162.22,-115.83 152.88,-120.84 158.05,-125.57"/>
</g>
<!-- node_3 -->
<g id="node4" class="node">
<title>node_3</title>
<polygon fill="none" stroke="black" points="58,-36 4,-36 4,0 58,0 58,-36"/>
<text text-anchor="middle" x="31" y="-12.95" font-family="Times,serif" font-size="14.00">1</text>
</g>
<!-- node_2&#45;&gt;node_3 -->
<g id="edge4" class="edge">
<title>node_2&#45;&gt;node_3</title>
<path fill="none" stroke="black" d="M92.06,-83.88C82.32,-73.53 67.71,-58 55.22,-44.74"/>
<polygon fill="black" stroke="black" points="57.84,-42.41 48.43,-37.52 52.74,-47.2 57.84,-42.41"/>
</g>
<!-- node_4 -->
<g id="node5" class="node">
<title>node_4</title>
<polygon fill="none" stroke="black" points="130,-36 76,-36 76,0 130,0 130,-36"/>
<text text-anchor="middle" x="103" y="-12.95" font-family="Times,serif" font-size="14.00">1</text>
</g>
<!-- node_2&#45;&gt;node_4 -->
<g id="edge5" class="edge">
<title>node_2&#45;&gt;node_4</title>
<path fill="none" stroke="black" d="M103,-83.88C103,-74.32 103,-60.34 103,-47.8"/>
<polygon fill="black" stroke="black" points="106.5,-47.93 103,-37.93 99.5,-47.93 106.5,-47.93"/>
</g>
<!-- node_5 -->
<g id="node6" class="node">
<title>node_5</title>
<polygon fill="none" stroke="black" points="202,-36 148,-36 148,0 202,0 202,-36"/>
<text text-anchor="middle" x="175" y="-12.95" font-family="Times,serif" font-size="14.00">1</text>
</g>
<!-- node_2&#45;&gt;node_5 -->
<g id="edge6" class="edge">
<title>node_2&#45;&gt;node_5</title>
<path fill="none" stroke="black" d="M113.94,-83.88C123.68,-73.53 138.29,-58 150.78,-44.74"/>
<polygon fill="black" stroke="black" points="153.26,-47.2 157.57,-37.52 148.16,-42.41 153.26,-47.2"/>
</g>
</g>
</svg>
