<svg xmlns="http://www.w3.org/2000/svg" xmlns:xlink="http://www.w3.org/1999/xlink" version="1.2" width="165.00mm" height="20.49mm" viewBox="8.5358 -0.0000 93.8941 11.6578">
<style type="text/css">
<![CDATA[
tspan { white-space: pre; }
]]>
</style>
<g transform="translate(0.0000, 9.0372)">
<rect x="16.7714" y="-0.1000" width="1.9563" height="0.2000" ry="0.1000" fill="currentColor"/>
</g>
<g transform="translate(8.5358, 8.0372)">
<line stroke-linejoin="round" stroke-linecap="round" stroke-width="0.1000" stroke="currentColor" x1="0.0500" y1="0" x2="93.8441" y2="0"/>
</g>
<g transform="translate(8.5358, 7.0372)">
<line stroke-linejoin="round" stroke-linecap="round" stroke-width="0.1000" stroke="currentColor" x1="0.0500" y1="0" x2="93.8441" y2="0"/>
</g>
<g transform="translate(8.5358, 6.0372)">
<line stroke-linejoin="round" stroke-linecap="round" stroke-width="0.1000" stroke="currentColor" x1="0.0500" y1="0" x2="93.8441" y2="0"/>
</g>
<g transform="translate(8.5358, 5.0372)">
<line stroke-linejoin="round" stroke-linecap="round" stroke-width="0.1000" stroke="currentColor" x1="0.0500" y1="0" x2="93.8441" y2="0"/>
</g>
<g transform="translate(8.5358, 4.0372)">
<line stroke-linejoin="round" stroke-linecap="round" stroke-width="0.1000" stroke="currentColor" x1="0.0500" y1="0" x2="93.8441" y2="0"/>
</g>
<g transform="translate(102.2399, 6.0372)">
<rect x="0.0000" y="-2.0000" width="0.1900" height="4.0000" ry="0.0000" fill="currentColor"/>
</g>
<g transform="translate(82.2330, 8.0194)">
<polygon stroke-linejoin="round" stroke-linecap="round" stroke-width="0.0800" fill="currentColor" stroke="currentColor" points="3.8185 -0.3022 3.8185 0.0978 0.0400 0.2000 0.0400 -0.2000"/>
</g>
<g transform="translate(82.2330, 8.8294)">
<polygon stroke-linejoin="round" stroke-linecap="round" stroke-width="0.0800" fill="currentColor" stroke="currentColor" points="3.8185 -0.3022 3.8185 0.0978 0.0400 0.2000 0.0400 -0.2000"/>
</g>
<g transform="translate(74.3861, 9.0372)">
<polygon stroke-linejoin="round" stroke-linecap="round" stroke-width="0.0800" fill="currentColor" stroke="currentColor" points="1.1250 -0.2309 1.1250 0.1691 0.0400 0.2000 0.0400 -0.2000"/>
</g>
<g transform="translate(74.3861, 9.8472)">
<polygon stroke-linejoin="round" stroke-linecap="round" stroke-width="0.0800" fill="currentColor" stroke="currentColor" points="11.6654 -0.5100 11.6654 -0.1100 0.0400 0.2000 0.0400 -0.2000"/>
</g>
<g transform="translate(17.0974, 9.0372)">
<path transform="scale(0.0040, -0.0040)" d="M0 -46c0 91 116 182 217 182c63 0 109 -35 109 -90c0 -87 -110 -182 -220 -182c-67 0 -106 39 -106 90z" fill="currentColor"/>
</g>
<g transform="translate(9.3358, 7.0372)">
<path transform="scale(0.0040, -0.0040)" d="M266 -635h-6c-108 0 -195 88 -195 197c0 58 53 103 112 103c54 0 95 -47 95 -103c0 -52 -43 -95 -95 -95c-11 0 -21 2 -31 6c26 -39 68 -65 117 -65h4zM401 151c19 -89 48 -242 60 -354c76 27 112 94 112 163c0 89 -60 179 -172 191zM74 28c0 -112 98 -247 278 -247
c21 0 44 2 68 6c-7 64 -29 203 -63 364c-79 -8 -124 -61 -124 -119c0 -44 25 -91 81 -123c5 -5 7 -10 7 -15c0 -11 -10 -22 -22 -22c-15 0 -126 62 -126 187c0 88 58 174 160 197c-14 58 -29 117 -46 175c-107 -121 -213 -243 -213 -403zM357 1194c28 0 143 -206 143 -361
c0 -143 -86 -255 -180 -364c21 -68 39 -138 56 -207c5 0 10 1 14 1c155 0 255 -129 255 -262c0 -113 -74 -212 -180 -245c3 -35 5 -70 5 -105c0 -19 -1 -39 -2 -58c-7 -119 -88 -225 -202 -228l1 43c93 2 153 92 159 191c1 18 2 37 2 55c0 31 -1 61 -4 92
c-28 -5 -55 -8 -80 -8c-239 0 -342 217 -342 374c0 177 131 306 248 441c-29 96 -52 170 -52 346c0 189 144 295 159 295zM247 782c0 -55 12 -115 35 -190c83 100 147 202 147 326c0 40 -6 82 -21 127c-49 -24 -161 -97 -161 -263z" fill="currentColor"/>
</g>
<g transform="translate(13.4208, 6.0372)">
<path transform="scale(0.0040, -0.0040)" d="M433 -89c0 -22 -50 -174 -183 -174c-59 0 -250 19 -250 263c0 62 18 262 250 262c116 0 176 -106 176 -163c0 -40 -30 -72 -67 -72c-31 0 -75 25 -75 75c0 38 27 77 72 77c4 0 9 0 14 -1c-28 37 -72 59 -120 59c-106 0 -113 -73 -113 -186v-51v-51
c0 -113 7 -187 113 -187c80 0 139 70 158 151c2 7 7 10 12 10c6 0 13 -4 13 -12z" fill="currentColor"/>
</g>
<g transform="translate(13.4208, 2.6727)">
<rect x="1.0449" y="-2.6727" width="0.1158" height="2.5129" ry="0.0193" fill="currentColor"/>
</g>
<g transform="translate(13.4208, 2.6727)">
<path transform="scale(0.0036, -0.0036)" d="M0 -45c0 92 113 182 214 182c64 0 112 -36 112 -92c0 -88 -108 -182 -217 -182c-68 0 -109 39 -109 92z" fill="currentColor"/>
</g>
<g transform="translate(14.5815, 3.1614)">
<text font-family="serif" font-size="2.2000" text-anchor="start" fill="currentColor">
<tspan> = 54</tspan>
</text>
</g>
<g transform="translate(18.8516, 8.5372)">
<path transform="scale(0.0040, -0.0040)" d="M0 0c0 31 25 56 56 56s56 -25 56 -56s-25 -56 -56 -56s-56 25 -56 56z" fill="currentColor"/>
</g>
<g transform="translate(19.7516, 8.5372)">
<path transform="scale(0.0040, -0.0040)" d="M0 0c0 31 25 56 56 56s56 -25 56 -56s-25 -56 -56 -56s-56 25 -56 56z" fill="currentColor"/>
</g>
<g transform="translate(18.3366, 6.0372)">
<rect x="-0.0650" y="-2.0009" width="0.1300" height="4.8147" ry="0.0400" fill="currentColor"/>
</g>
<g transform="translate(92.6795, 11.4468)">
<text font-family="serif" font-style="italic" font-size="1.7459" text-anchor="start" fill="currentColor">
<tspan>5</tspan>
</text>
</g>
<g transform="translate(22.8369, 8.5372)">
<path transform="scale(0.0040, -0.0040)" d="M0 -46c0 91 116 182 217 182c63 0 109 -35 109 -90c0 -87 -110 -182 -220 -182c-67 0 -106 39 -106 90z" fill="currentColor"/>
</g>
<g transform="translate(24.0761, 6.0372)">
<rect x="-0.0650" y="-2.0792" width="0.1300" height="4.3930" ry="0.0400" fill="currentColor"/>
</g>
<g transform="translate(85.9616, 10.8789)">
<line stroke-linejoin="round" stroke-linecap="round" stroke-width="0.1600" stroke="currentColor" x1="14.5235" y1="-0.0000" x2="14.5235" y2="-0.7000"/>
</g>
<g transform="translate(85.9616, 10.8789)">
<line stroke-linejoin="round" stroke-linecap="round" stroke-width="0.1600" stroke="currentColor" x1="-0.2000" y1="-0.0000" x2="-0.2000" y2="-0.7000"/>
</g>
<g transform="translate(85.9616, 10.8789)">
<line stroke-linejoin="round" stroke-linecap="round" stroke-width="0.1600" stroke="currentColor" x1="14.5235" y1="-0.0000" x2="8.2056" y2="-0.0000"/>
</g>
<g transform="translate(85.9616, 10.8789)">
<line stroke-linejoin="round" stroke-linecap="round" stroke-width="0.1600" stroke="currentColor" x1="-0.2000" y1="-0.0000" x2="6.3179" y2="-0.0000"/>
</g>
<g transform="translate(25.3061, 8.5372)">
<path transform="scale(0.0040, -0.0040)" d="M0 -46c0 91 116 182 217 182c63 0 109 -35 109 -90c0 -87 -110 -182 -220 -182c-67 0 -106 39 -106 90z" fill="currentColor"/>
</g>
<g transform="translate(26.5453, 6.0372)">
<rect x="-0.0650" y="-2.1129" width="0.1300" height="4.4267" ry="0.0400" fill="currentColor"/>
</g>
<g transform="translate(83.2680, 6.0372)">
<path stroke-width="0.0800" stroke-linejoin="round" stroke-linecap="round" stroke="currentColor" fill="currentColor" d="M0.8521 -1.2250C1.3922 -1.8426 2.6056 -1.8426 3.1456 -1.2250L3.1456 -1.2250C2.6056 -1.7226 1.3922 -1.7226 0.8521 -1.2250z"/>
</g>
<g transform="translate(30.8950, 8.0372)">
<path transform="scale(0.0040, -0.0040)" d="M0 -46c0 91 116 182 217 182c63 0 109 -35 109 -90c0 -87 -110 -182 -220 -182c-67 0 -106 39 -106 90z" fill="currentColor"/>
</g>
<g transform="translate(32.1342, 6.0372)">
<rect x="-0.0650" y="-2.1891" width="0.1300" height="4.0029" ry="0.0400" fill="currentColor"/>
</g>
<g transform="translate(34.1540, 8.0372)">
<path transform="scale(0.0040, -0.0040)" d="M0 -46c0 91 116 182 217 182c63 0 109 -35 109 -90c0 -87 -110 -182 -220 -182c-67 0 -106 39 -106 90z" fill="currentColor"/>
</g>
<g transform="translate(35.3932, 6.0372)">
<rect x="-0.0650" y="-2.1924" width="0.1300" height="4.0062" ry="0.0400" fill="currentColor"/>
</g>
<g transform="translate(78.2446, 6.0372)">
<path stroke-width="0.0800" stroke-linejoin="round" stroke-linecap="round" stroke="currentColor" fill="currentColor" d="M0.8521 -1.2118C1.7064 -2.0222 4.6212 -2.0222 5.4755 -1.2118L5.4755 -1.2118C4.6212 -1.9022 1.7064 -1.9022 0.8521 -1.2118z"/>
</g>
<g transform="translate(39.1774, 8.0372)">
<path transform="scale(0.0040, -0.0040)" d="M0 -46c0 91 116 182 217 182c63 0 109 -35 109 -90c0 -87 -110 -182 -220 -182c-67 0 -106 39 -106 90z" fill="currentColor"/>
</g>
<g transform="translate(40.4166, 6.0372)">
<rect x="-0.0650" y="-2.3777" width="0.1300" height="4.1915" ry="0.0400" fill="currentColor"/>
</g>
<g transform="translate(41.8709, 7.5372)">
<path transform="scale(0.0040, -0.0040)" d="M0 -46c0 91 116 182 217 182c63 0 109 -35 109 -90c0 -87 -110 -182 -220 -182c-67 0 -106 39 -106 90z" fill="currentColor"/>
</g>
<g transform="translate(43.1101, 6.0372)">
<rect x="-0.0650" y="-2.4770" width="0.1300" height="3.7908" ry="0.0400" fill="currentColor"/>
</g>
<g transform="translate(56.4330, 3.0372)">
<polygon stroke-linejoin="round" stroke-linecap="round" stroke-width="0.0800" fill="currentColor" stroke="currentColor" points="14.1119 -0.7000 14.1119 -0.3000 0.0400 0.2000 0.0400 -0.2000"/>
</g>
<g transform="translate(56.4330, 3.8472)">
<polygon stroke-linejoin="round" stroke-linecap="round" stroke-width="0.0800" fill="currentColor" stroke="currentColor" points="14.1119 -0.7000 14.1119 -0.3000 0.0400 0.2000 0.0400 -0.2000"/>
</g>
<g transform="translate(45.7294, 7.5372)">
<path transform="scale(0.0040, -0.0040)" d="M0 -46c0 91 116 182 217 182c63 0 109 -35 109 -90c0 -87 -110 -182 -220 -182c-67 0 -106 39 -106 90z" fill="currentColor"/>
</g>
<g transform="translate(47.4836, 7.5372)">
<path transform="scale(0.0040, -0.0040)" d="M0 0c0 31 25 56 56 56s56 -25 56 -56s-25 -56 -56 -56s-56 25 -56 56z" fill="currentColor"/>
</g>
<g transform="translate(46.9686, 6.0372)">
<rect x="-0.0650" y="-2.6193" width="0.1300" height="3.9331" ry="0.0400" fill="currentColor"/>
</g>
<g transform="translate(78.4482, 11.6374)">
<text font-family="serif" font-style="italic" font-size="1.7459" text-anchor="start" fill="currentColor">
<tspan>7</tspan>
</text>
</g>
<g transform="translate(50.8348, 7.0372)">
<path transform="scale(0.0040, -0.0040)" d="M0 -46c0 91 116 182 217 182c63 0 109 -35 109 -90c0 -87 -110 -182 -220 -182c-67 0 -106 39 -106 90z" fill="currentColor"/>
</g>
<g transform="translate(52.0740, 6.0372)">
<rect x="-0.0650" y="-2.8076" width="0.1300" height="3.6214" ry="0.0400" fill="currentColor"/>
</g>
<g transform="translate(74.3861, 11.1872)">
<line stroke-linejoin="round" stroke-linecap="round" stroke-width="0.1600" stroke="currentColor" x1="9.2118" y1="-0.2404" x2="9.2118" y2="-0.9404"/>
</g>
<g transform="translate(74.3861, 11.1872)">
<line stroke-linejoin="round" stroke-linecap="round" stroke-width="0.1600" stroke="currentColor" x1="-0.1999" y1="0.0052" x2="-0.1999" y2="-0.6948"/>
</g>
<g transform="translate(74.3861, 11.1872)">
<line stroke-linejoin="round" stroke-linecap="round" stroke-width="0.1600" stroke="currentColor" x1="9.2118" y1="-0.2404" x2="5.5494" y2="-0.1448"/>
</g>
<g transform="translate(74.3861, 11.1872)">
<line stroke-linejoin="round" stroke-linecap="round" stroke-width="0.1600" stroke="currentColor" x1="-0.1999" y1="0.0052" x2="3.6624" y2="-0.0956"/>
</g>
<g transform="translate(55.2588, 7.0372)">
<path transform="scale(0.0040, -0.0040)" d="M0 -46c0 91 116 182 217 182c63 0 109 -35 109 -90c0 -87 -110 -182 -220 -182c-67 0 -106 39 -106 90z" fill="currentColor"/>
</g>
<g transform="translate(56.4980, 6.0372)">
<rect x="-0.0650" y="-3.0023" width="0.1300" height="3.8161" ry="0.0400" fill="currentColor"/>
</g>
<g transform="translate(69.2807, 6.0372)">
<path stroke-width="0.0800" stroke-linejoin="round" stroke-linecap="round" stroke="currentColor" fill="currentColor" d="M1.5042 0.2250C2.1943 0.9479 4.0803 0.9479 4.7704 0.2250L4.7704 0.2250C4.0803 0.8279 2.1943 0.8279 1.5042 0.2250z"/>
</g>
<g transform="translate(60.0578, 6.5372)">
<path transform="scale(0.0040, -0.0040)" d="M0 -46c0 91 116 182 217 182c63 0 109 -35 109 -90c0 -87 -110 -182 -220 -182c-67 0 -106 39 -106 90z" fill="currentColor"/>
</g>
<g transform="translate(61.2970, 6.0372)">
<rect x="-0.0650" y="-3.1718" width="0.1300" height="3.4856" ry="0.0400" fill="currentColor"/>
</g>
<g transform="translate(64.8568, 6.5372)">
<path transform="scale(0.0040, -0.0040)" d="M0 -46c0 91 116 182 217 182c63 0 109 -35 109 -90c0 -87 -110 -182 -220 -182c-67 0 -106 39 -106 90z" fill="currentColor"/>
</g>
<g transform="translate(66.0960, 6.0372)">
<rect x="-0.0650" y="-3.3414" width="0.1300" height="3.6552" ry="0.0400" fill="currentColor"/>
</g>
<g transform="translate(67.8641, 1.8432)">
<text font-family="serif" font-style="italic" font-size="1.7459" text-anchor="start" fill="currentColor">
<tspan>5</tspan>
</text>
</g>
<g transform="translate(69.2807, 6.0372)">
<path transform="scale(0.0040, -0.0040)" d="M0 -46c0 91 116 182 217 182c63 0 109 -35 109 -90c0 -87 -110 -182 -220 -182c-67 0 -106 39 -106 90z" fill="currentColor"/>
</g>
<g transform="translate(71.0349, 5.5372)">
<path transform="scale(0.0040, -0.0040)" d="M0 0c0 31 25 56 56 56s56 -25 56 -56s-25 -56 -56 -56s-56 25 -56 56z" fill="currentColor"/>
</g>
<g transform="translate(70.5199, 6.0372)">
<rect x="-0.0650" y="-3.4977" width="0.1300" height="3.3115" ry="0.0400" fill="currentColor"/>
</g>
<g transform="translate(66.0310, 1.3536)">
<line stroke-linejoin="round" stroke-linecap="round" stroke-width="0.1600" stroke="currentColor" x1="4.7538" y1="-0.1632" x2="4.7538" y2="0.5368"/>
</g>
<g transform="translate(66.0310, 1.3536)">
<line stroke-linejoin="round" stroke-linecap="round" stroke-width="0.1600" stroke="currentColor" x1="-0.1999" y1="0.0069" x2="-0.1999" y2="0.7069"/>
</g>
<g transform="translate(66.0310, 1.3536)">
<line stroke-linejoin="round" stroke-linecap="round" stroke-width="0.1600" stroke="currentColor" x1="4.7538" y1="-0.1632" x2="3.3202" y2="-0.1140"/>
</g>
<g transform="translate(66.0310, 1.3536)">
<line stroke-linejoin="round" stroke-linecap="round" stroke-width="0.1600" stroke="currentColor" x1="-0.1999" y1="0.0069" x2="1.4336" y2="-0.0492"/>
</g>
<g transform="translate(74.3861, 6.0372)">
<path transform="scale(0.0040, -0.0040)" d="M0 -46c0 91 116 182 217 182c63 0 109 -35 109 -90c0 -87 -110 -182 -220 -182c-67 0 -106 39 -106 90z" fill="currentColor"/>
</g>
<g transform="translate(74.4511, 6.0372)">
<rect x="-0.0650" y="0.1862" width="0.1300" height="3.6221" ry="0.0400" fill="currentColor"/>
</g>
<g transform="translate(60.0578, 6.0372)">
<path stroke-width="0.0800" stroke-linejoin="round" stroke-linecap="round" stroke="currentColor" fill="currentColor" d="M0.8521 1.2155C1.6822 2.0145 4.4210 2.0145 5.2511 1.2155L5.2511 1.2155C4.4210 1.8945 1.6822 1.8945 0.8521 1.2155z"/>
</g>
<g transform="translate(78.2446, 5.5372)">
<path transform="scale(0.0040, -0.0040)" d="M0 -46c0 91 116 182 217 182c63 0 109 -35 109 -90c0 -87 -110 -182 -220 -182c-67 0 -106 39 -106 90z" fill="currentColor"/>
</g>
<g transform="translate(78.3096, 6.0372)">
<rect x="-0.0650" y="-0.3138" width="0.1300" height="4.0199" ry="0.0400" fill="currentColor"/>
</g>
<g transform="translate(83.2680, 5.5372)">
<path transform="scale(0.0040, -0.0040)" d="M0 -46c0 91 116 182 217 182c63 0 109 -35 109 -90c0 -87 -110 -182 -220 -182c-67 0 -106 39 -106 90z" fill="currentColor"/>
</g>
<g transform="translate(83.3330, 6.0372)">
<rect x="-0.0650" y="-0.3138" width="0.1300" height="3.8869" ry="0.0400" fill="currentColor"/>
</g>
<g transform="translate(35.3282, 3.8472)">
<polygon stroke-linejoin="round" stroke-linecap="round" stroke-width="0.0800" fill="currentColor" stroke="currentColor" points="16.7708 -0.8200 16.7708 -0.4200 0.0400 0.2000 0.0400 -0.2000"/>
</g>
<g transform="translate(40.3516, 4.4719)">
<polygon stroke-linejoin="round" stroke-linecap="round" stroke-width="0.0800" fill="currentColor" stroke="currentColor" points="11.7474 -0.6347 11.7474 -0.2347 0.0400 0.2000 0.0400 -0.2000"/>
</g>
<g transform="translate(40.3516, 5.2819)">
<polygon stroke-linejoin="round" stroke-linecap="round" stroke-width="0.0800" fill="currentColor" stroke="currentColor" points="1.1250 -0.2430 1.1250 0.1570 0.0400 0.2000 0.0400 -0.2000"/>
</g>
<g transform="translate(85.9616, 5.5372)">
<path transform="scale(0.0040, -0.0040)" d="M0 -46c0 91 116 182 217 182c63 0 109 -35 109 -90c0 -87 -110 -182 -220 -182c-67 0 -106 39 -106 90z" fill="currentColor"/>
</g>
<g transform="translate(86.0266, 6.0372)">
<rect x="-0.0650" y="-0.3138" width="0.1300" height="3.8155" ry="0.0400" fill="currentColor"/>
</g>
<g transform="translate(50.8348, 6.0372)">
<path stroke-width="0.0800" stroke-linejoin="round" stroke-linecap="round" stroke="currentColor" fill="currentColor" d="M1.5042 1.2224C2.1140 1.8923 3.6141 1.8923 4.2240 1.2224L4.2240 1.2224C3.6141 1.7723 2.1140 1.7723 1.5042 1.2224z"/>
</g>
<g transform="translate(89.2206, 6.0372)">
<path transform="scale(0.0040, -0.0040)" d="M154 455c79 0 46 -98 91 -98c15 0 46 49 52 63c3 6 8 9 14 9s12 -3 14 -9l-216 -920c-8 -7 -18 -10 -28 -10s-19 3 -27 10l86 327c-35 -13 -71 -23 -108 -23c-58 0 -86 41 -86 80c0 36 24 71 71 71c79 0 46 -98 91 -98c17 0 54 54 59 71l39 149c-34 -12 -70 -23 -106 -23
c-58 0 -85 41 -85 80c0 36 24 71 71 71c79 0 45 -98 90 -98c16 0 52 51 56 68l40 151c-33 -12 -68 -22 -103 -22c-58 0 -86 41 -86 80c0 36 24 71 71 71z" fill="currentColor"/>
</g>
<g transform="translate(92.4754, 6.0372)">
<path transform="scale(0.0040, -0.0040)" d="M154 455c79 0 46 -98 91 -98c15 0 46 49 52 63c3 6 8 9 14 9s12 -3 14 -9l-216 -920c-8 -7 -18 -10 -28 -10s-19 3 -27 10l86 327c-35 -13 -71 -23 -108 -23c-58 0 -86 41 -86 80c0 36 24 71 71 71c79 0 46 -98 91 -98c17 0 54 54 59 71l39 149c-34 -12 -70 -23 -106 -23
c-58 0 -85 41 -85 80c0 36 24 71 71 71c79 0 45 -98 90 -98c16 0 52 51 56 68l40 151c-33 -12 -68 -22 -103 -22c-58 0 -86 41 -86 80c0 36 24 71 71 71z" fill="currentColor"/>
</g>
<g transform="translate(49.0775, 2.5492)">
<text font-family="serif" font-style="italic" font-size="1.7459" text-anchor="start" fill="currentColor">
<tspan>5</tspan>
</text>
</g>
<g transform="translate(95.7303, 6.0372)">
<path transform="scale(0.0040, -0.0040)" d="M154 455c79 0 46 -98 91 -98c15 0 46 49 52 63c3 6 8 9 14 9s12 -3 14 -9l-216 -920c-8 -7 -18 -10 -28 -10s-19 3 -27 10l86 327c-35 -13 -71 -23 -108 -23c-58 0 -86 41 -86 80c0 36 24 71 71 71c79 0 46 -98 91 -98c17 0 54 54 59 71l39 149c-34 -12 -70 -23 -106 -23
c-58 0 -85 41 -85 80c0 36 24 71 71 71c79 0 45 -98 90 -98c16 0 52 51 56 68l40 151c-33 -12 -68 -22 -103 -22c-58 0 -86 41 -86 80c0 36 24 71 71 71z" fill="currentColor"/>
</g>
<g transform="translate(46.9036, 2.0756)">
<line stroke-linejoin="round" stroke-linecap="round" stroke-width="0.1600" stroke="currentColor" x1="5.4353" y1="-0.1955" x2="5.4353" y2="0.5045"/>
</g>
<g transform="translate(46.9036, 2.0756)">
<line stroke-linejoin="round" stroke-linecap="round" stroke-width="0.1600" stroke="currentColor" x1="-0.1999" y1="0.0072" x2="-0.1999" y2="0.7072"/>
</g>
<g transform="translate(46.9036, 2.0756)">
<line stroke-linejoin="round" stroke-linecap="round" stroke-width="0.1600" stroke="currentColor" x1="5.4353" y1="-0.1955" x2="3.6609" y2="-0.1317"/>
</g>
<g transform="translate(46.9036, 2.0756)">
<line stroke-linejoin="round" stroke-linecap="round" stroke-width="0.1600" stroke="currentColor" x1="-0.1999" y1="0.0072" x2="1.7744" y2="-0.0638"/>
</g>
<g transform="translate(98.9851, 6.0372)">
<path transform="scale(0.0040, -0.0040)" d="M154 455c79 0 46 -98 91 -98c15 0 46 49 52 63c3 6 8 9 14 9s12 -3 14 -9l-216 -920c-8 -7 -18 -10 -28 -10s-19 3 -27 10l86 327c-35 -13 -71 -23 -108 -23c-58 0 -86 41 -86 80c0 36 24 71 71 71c79 0 46 -98 91 -98c17 0 54 54 59 71l39 149c-34 -12 -70 -23 -106 -23
c-58 0 -85 41 -85 80c0 36 24 71 71 71c79 0 45 -98 90 -98c16 0 52 51 56 68l40 151c-33 -12 -68 -22 -103 -22c-58 0 -86 41 -86 80c0 36 24 71 71 71z" fill="currentColor"/>
</g>
<g transform="translate(41.8709, 6.0372)">
<path stroke-width="0.0800" stroke-linejoin="round" stroke-linecap="round" stroke="currentColor" fill="currentColor" d="M1.5042 2.0000C2.0199 2.5979 3.1427 2.5979 3.6585 2.0000L3.6585 2.0000C3.1427 2.4779 2.0199 2.4779 1.5042 2.0000z"/>
</g>
<g transform="translate(22.8369, 6.0372)">
<path stroke-width="0.0800" stroke-linejoin="round" stroke-linecap="round" stroke="currentColor" fill="currentColor" d="M0.8521 3.5000C1.3525 4.0852 2.4208 4.0852 2.9212 3.5000L2.9212 3.5000C2.4208 3.9652 1.3525 3.9652 0.8521 3.5000z"/>
</g>
<g transform="translate(26.4803, 2.5835)">
<line stroke-linejoin="round" stroke-linecap="round" stroke-width="0.1600" stroke="currentColor" x1="5.9189" y1="-0.0789" x2="5.9189" y2="0.6211"/>
</g>
<g transform="translate(26.4803, 2.5835)">
<line stroke-linejoin="round" stroke-linecap="round" stroke-width="0.1600" stroke="currentColor" x1="-0.2000" y1="0.0027" x2="-0.2000" y2="0.7027"/>
</g>
<g transform="translate(26.4803, 2.5835)">
<line stroke-linejoin="round" stroke-linecap="round" stroke-width="0.1600" stroke="currentColor" x1="5.9189" y1="-0.0789" x2="3.9032" y2="-0.0520"/>
</g>
<g transform="translate(26.4803, 2.5835)">
<line stroke-linejoin="round" stroke-linecap="round" stroke-width="0.1600" stroke="currentColor" x1="-0.2000" y1="0.0027" x2="2.0157" y2="-0.0269"/>
</g>
<g transform="translate(28.8959, 3.1132)">
<text font-family="serif" font-style="italic" font-size="1.7459" text-anchor="start" fill="currentColor">
<tspan>5</tspan>
</text>
</g>
<g transform="translate(30.8950, 6.0372)">
<path stroke-width="0.0800" stroke-linejoin="round" stroke-linecap="round" stroke="currentColor" fill="currentColor" d="M0.8521 2.7500C1.4833 3.4348 3.0799 3.4348 3.7111 2.7500L3.7111 2.7500C3.0799 3.3148 1.4833 3.3148 0.8521 2.7500z"/>
</g>
<g transform="translate(35.3282, 2.5025)">
<line stroke-linejoin="round" stroke-linecap="round" stroke-width="0.1600" stroke="currentColor" x1="8.0468" y1="-0.2919" x2="8.0468" y2="0.4081"/>
</g>
<g transform="translate(35.3282, 2.5025)">
<line stroke-linejoin="round" stroke-linecap="round" stroke-width="0.1600" stroke="currentColor" x1="-0.1999" y1="0.0072" x2="-0.1999" y2="0.7072"/>
</g>
<g transform="translate(35.3282, 2.5025)">
<line stroke-linejoin="round" stroke-linecap="round" stroke-width="0.1600" stroke="currentColor" x1="8.0468" y1="-0.2919" x2="4.9667" y2="-0.1801"/>
</g>
<g transform="translate(35.3282, 2.5025)">
<line stroke-linejoin="round" stroke-linecap="round" stroke-width="0.1600" stroke="currentColor" x1="-0.1999" y1="0.0072" x2="3.0802" y2="-0.1117"/>
</g>
<g transform="translate(38.8078, 2.9280)">
<text font-family="serif" font-style="italic" font-size="1.7459" text-anchor="start" fill="currentColor">
<tspan>7</tspan>
</text>
</g>
<g transform="translate(18.2716, 4.0372)">
<polygon stroke-linejoin="round" stroke-linecap="round" stroke-width="0.0800" fill="currentColor" stroke="currentColor" points="13.8875 -0.3900 13.8875 0.0100 0.0400 0.2000 0.0400 -0.2000"/>
</g>
<g transform="translate(31.0342, 4.7364)">
<polygon stroke-linejoin="round" stroke-linecap="round" stroke-width="0.0800" fill="currentColor" stroke="currentColor" points="1.1250 -0.2159 1.1250 0.1841 0.0400 0.2000 0.0400 -0.2000"/>
</g>
<g transform="translate(18.2716, 4.9105)">
<polygon stroke-linejoin="round" stroke-linecap="round" stroke-width="0.0800" fill="currentColor" stroke="currentColor" points="5.8295 -0.2801 5.8295 0.1199 0.0400 0.2000 0.0400 -0.2000"/>
</g>
<g transform="translate(31.0342, 5.6098)">
<polygon stroke-linejoin="round" stroke-linecap="round" stroke-width="0.0800" fill="currentColor" stroke="currentColor" points="1.1250 -0.2159 1.1250 0.1841 0.0400 0.2000 0.0400 -0.2000"/>
</g>
<g transform="translate(22.9761, 5.7197)">
<polygon stroke-linejoin="round" stroke-linecap="round" stroke-width="0.0800" fill="currentColor" stroke="currentColor" points="1.1250 -0.2159 1.1250 0.1841 0.0400 0.2000 0.0400 -0.2000"/>
</g>
<g transform="translate(22.9761, 6.5930)">
<polygon stroke-linejoin="round" stroke-linecap="round" stroke-width="0.0800" fill="currentColor" stroke="currentColor" points="1.1250 -0.2159 1.1250 0.1841 0.0400 0.2000 0.0400 -0.2000"/>
</g>
<g transform="translate(34.1540, 6.0372)">
<path stroke-width="0.0800" stroke-linejoin="round" stroke-linecap="round" stroke="currentColor" fill="currentColor" d="M0.8521 2.7500C1.7064 3.5604 4.6212 3.5604 5.4755 2.7500L5.4755 2.7500C4.6212 3.4404 1.7064 3.4404 0.8521 2.7500z"/>
</g>
</svg>
