<svg xmlns="http://www.w3.org/2000/svg" xmlns:xlink="http://www.w3.org/1999/xlink" version="1.2" width="210.00mm" height="297.00mm" viewBox="0.0000 -0.0000 119.5016 169.0094">
<style type="text/css">
<![CDATA[
tspan { white-space: pre; }
]]>
</style>
<g transform="translate(8.5358, 15.7278)">
<rect x="21.5965" y="-0.1000" width="1.8944" height="0.2000" ry="0.1000" fill="currentColor"/>
</g>
<g transform="translate(8.5358, 15.7278)">
<rect x="19.2359" y="-0.1000" width="1.9563" height="0.2000" ry="0.1000" fill="currentColor"/>
</g>
<g transform="translate(8.5358, 15.7278)">
<rect x="16.3469" y="-0.1000" width="1.9563" height="0.2000" ry="0.1000" fill="currentColor"/>
</g>
<g transform="translate(17.0717, 14.7278)">
<line stroke-linejoin="round" stroke-linecap="round" stroke-width="0.1000" stroke="currentColor" x1="0.0500" y1="0" x2="93.8441" y2="0"/>
</g>
<g transform="translate(17.0717, 13.7278)">
<line stroke-linejoin="round" stroke-linecap="round" stroke-width="0.1000" stroke="currentColor" x1="0.0500" y1="0" x2="93.8441" y2="0"/>
</g>
<g transform="translate(17.0717, 12.7278)">
<line stroke-linejoin="round" stroke-linecap="round" stroke-width="0.1000" stroke="currentColor" x1="0.0500" y1="0" x2="93.8441" y2="0"/>
</g>
<g transform="translate(17.0717, 11.7278)">
<line stroke-linejoin="round" stroke-linecap="round" stroke-width="0.1000" stroke="currentColor" x1="0.0500" y1="0" x2="93.8441" y2="0"/>
</g>
<g transform="translate(17.0717, 10.7278)">
<line stroke-linejoin="round" stroke-linecap="round" stroke-width="0.1000" stroke="currentColor" x1="0.0500" y1="0" x2="93.8441" y2="0"/>
</g>
<g transform="translate(110.7757, 12.7278)">
<rect x="0.0000" y="-2.0000" width="0.1900" height="4.0000" ry="0.0000" fill="currentColor"/>
</g>
<g transform="translate(86.3000, 14.9178)">
<polygon stroke-linejoin="round" stroke-linecap="round" stroke-width="0.0800" fill="currentColor" stroke="currentColor" points="13.6294 -0.5100 13.6294 -0.1100 0.0400 0.2000 0.0400 -0.2000"/>
</g>
<g transform="translate(86.3000, 15.7278)">
<polygon stroke-linejoin="round" stroke-linecap="round" stroke-width="0.0800" fill="currentColor" stroke="currentColor" points="13.6294 -0.5100 13.6294 -0.1100 0.0400 0.2000 0.0400 -0.2000"/>
</g>
<g transform="translate(86.3000, 16.5378)">
<polygon stroke-linejoin="round" stroke-linecap="round" stroke-width="0.0800" fill="currentColor" stroke="currentColor" points="13.6294 -0.5100 13.6294 -0.1100 0.0400 0.2000 0.0400 -0.2000"/>
</g>
<g transform="translate(25.2088, 15.7278)">
<path transform="scale(0.0040, -0.0040)" d="M0 -46c0 91 116 182 217 182c63 0 109 -35 109 -90c0 -87 -110 -182 -220 -182c-67 0 -106 39 -106 90z" fill="currentColor"/>
</g>
<g transform="translate(17.8717, 13.7278)">
<path transform="scale(0.0040, -0.0040)" d="M266 -635h-6c-108 0 -195 88 -195 197c0 58 53 103 112 103c54 0 95 -47 95 -103c0 -52 -43 -95 -95 -95c-11 0 -21 2 -31 6c26 -39 68 -65 117 -65h4zM401 151c19 -89 48 -242 60 -354c76 27 112 94 112 163c0 89 -60 179 -172 191zM74 28c0 -112 98 -247 278 -247
c21 0 44 2 68 6c-7 64 -29 203 -63 364c-79 -8 -124 -61 -124 -119c0 -44 25 -91 81 -123c5 -5 7 -10 7 -15c0 -11 -10 -22 -22 -22c-15 0 -126 62 -126 187c0 88 58 174 160 197c-14 58 -29 117 -46 175c-107 -121 -213 -243 -213 -403zM357 1194c28 0 143 -206 143 -361
c0 -143 -86 -255 -180 -364c21 -68 39 -138 56 -207c5 0 10 1 14 1c155 0 255 -129 255 -262c0 -113 -74 -212 -180 -245c3 -35 5 -70 5 -105c0 -19 -1 -39 -2 -58c-7 -119 -88 -225 -202 -228l1 43c93 2 153 92 159 191c1 18 2 37 2 55c0 31 -1 61 -4 92
c-28 -5 -55 -8 -80 -8c-239 0 -342 217 -342 374c0 177 131 306 248 441c-29 96 -52 170 -52 346c0 189 144 295 159 295zM247 782c0 -55 12 -115 35 -190c83 100 147 202 147 326c0 40 -6 82 -21 127c-49 -24 -161 -97 -161 -263z" fill="currentColor"/>
</g>
<g transform="translate(21.9567, 12.7278)">
<path transform="scale(0.0040, -0.0040)" d="M433 -89c0 -22 -50 -174 -183 -174c-59 0 -250 19 -250 263c0 62 18 262 250 262c116 0 176 -106 176 -163c0 -40 -30 -72 -67 -72c-31 0 -75 25 -75 75c0 38 27 77 72 77c4 0 9 0 14 -1c-28 37 -72 59 -120 59c-106 0 -113 -73 -113 -186v-51v-51
c0 -113 7 -187 113 -187c80 0 139 70 158 151c2 7 7 10 12 10c6 0 13 -4 13 -12z" fill="currentColor"/>
</g>
<g transform="translate(21.9567, 9.3632)">
<rect x="1.0449" y="-2.6727" width="0.1158" height="2.5129" ry="0.0193" fill="currentColor"/>
</g>
<g transform="translate(21.9567, 9.3632)">
<path transform="scale(0.0036, -0.0036)" d="M0 -45c0 92 113 182 214 182c64 0 112 -36 112 -92c0 -88 -108 -182 -217 -182c-68 0 -109 39 -109 92z" fill="currentColor"/>
</g>
<g transform="translate(23.1173, 9.8520)">
<text font-family="serif" font-size="2.2000" text-anchor="start" fill="currentColor">
<tspan> = 54</tspan>
</text>
</g>
<g transform="translate(26.4480, 12.7278)">
<rect x="-0.0650" y="-2.0007" width="0.1300" height="4.8145" ry="0.0400" fill="currentColor"/>
</g>
<g transform="translate(104.4205, 18.1371)">
<text font-family="serif" font-style="italic" font-size="1.7459" text-anchor="start" fill="currentColor">
<tspan>5</tspan>
</text>
</g>
<g transform="translate(28.0977, 15.7278)">
<path transform="scale(0.0040, -0.0040)" d="M0 -46c0 91 116 182 217 182c63 0 109 -35 109 -90c0 -87 -110 -182 -220 -182c-67 0 -106 39 -106 90z" fill="currentColor"/>
</g>
<g transform="translate(29.3369, 12.7278)">
<rect x="-0.0650" y="-2.0315" width="0.1300" height="4.8453" ry="0.0400" fill="currentColor"/>
</g>
<g transform="translate(99.8394, 17.5692)">
<line stroke-linejoin="round" stroke-linecap="round" stroke-width="0.1600" stroke="currentColor" x1="10.2499" y1="-0.0000" x2="10.2499" y2="-0.7000"/>
</g>
<g transform="translate(99.8394, 17.5692)">
<line stroke-linejoin="round" stroke-linecap="round" stroke-width="0.1600" stroke="currentColor" x1="-0.2000" y1="-0.0000" x2="-0.2000" y2="-0.7000"/>
</g>
<g transform="translate(99.8394, 17.5692)">
<line stroke-linejoin="round" stroke-linecap="round" stroke-width="0.1600" stroke="currentColor" x1="10.2499" y1="-0.0000" x2="6.0688" y2="-0.0000"/>
</g>
<g transform="translate(99.8394, 17.5692)">
<line stroke-linejoin="round" stroke-linecap="round" stroke-width="0.1600" stroke="currentColor" x1="-0.2000" y1="-0.0000" x2="4.1811" y2="-0.0000"/>
</g>
<g transform="translate(30.4584, 15.7278)">
<path transform="scale(0.0040, -0.0040)" d="M0 -46c0 91 116 182 217 182c63 0 109 -35 109 -90c0 -87 -110 -182 -220 -182c-67 0 -106 39 -106 90z" fill="currentColor"/>
</g>
<g transform="translate(31.6976, 12.7278)">
<rect x="-0.0650" y="-2.0567" width="0.1300" height="4.8705" ry="0.0400" fill="currentColor"/>
</g>
<g transform="translate(97.9052, 12.7278)">
<path stroke-width="0.0800" stroke-linejoin="round" stroke-linecap="round" stroke="currentColor" fill="currentColor" d="M0.8521 -1.2250C1.2488 -1.7155 1.9896 -1.7155 2.3863 -1.2250L2.3863 -1.2250C1.9896 -1.5955 1.2488 -1.5955 0.8521 -1.2250z"/>
</g>
<g transform="translate(32.2909, 15.2278)">
<path transform="scale(0.0040, -0.0040)" d="M0 -46c0 91 116 182 217 182c63 0 109 -35 109 -90c0 -87 -110 -182 -220 -182c-67 0 -106 39 -106 90z" fill="currentColor"/>
</g>
<g transform="translate(33.5301, 12.7278)">
<rect x="-0.0650" y="-2.0763" width="0.1300" height="4.3901" ry="0.0400" fill="currentColor"/>
</g>
<g transform="translate(34.1233, 15.2278)">
<path transform="scale(0.0040, -0.0040)" d="M0 -46c0 91 116 182 217 182c63 0 109 -35 109 -90c0 -87 -110 -182 -220 -182c-67 0 -106 39 -106 90z" fill="currentColor"/>
</g>
<g transform="translate(35.3625, 12.7278)">
<rect x="-0.0650" y="-2.0958" width="0.1300" height="4.4096" ry="0.0400" fill="currentColor"/>
</g>
<g transform="translate(95.9710, 12.7278)">
<path stroke-width="0.0800" stroke-linejoin="round" stroke-linecap="round" stroke="currentColor" fill="currentColor" d="M0.8521 -1.2250C1.2488 -1.7155 1.9896 -1.7155 2.3863 -1.2250L2.3863 -1.2250C1.9896 -1.5955 1.2488 -1.5955 0.8521 -1.2250z"/>
</g>
<g transform="translate(36.3139, 15.2278)">
<path transform="scale(0.0040, -0.0040)" d="M0 -46c0 91 116 182 217 182c63 0 109 -35 109 -90c0 -87 -110 -182 -220 -182c-67 0 -106 39 -106 90z" fill="currentColor"/>
</g>
<g transform="translate(37.5531, 12.7278)">
<rect x="-0.0650" y="-2.1192" width="0.1300" height="4.4330" ry="0.0400" fill="currentColor"/>
</g>
<g transform="translate(38.5046, 15.2278)">
<path transform="scale(0.0040, -0.0040)" d="M0 -46c0 91 116 182 217 182c63 0 109 -35 109 -90c0 -87 -110 -182 -220 -182c-67 0 -106 39 -106 90z" fill="currentColor"/>
</g>
<g transform="translate(39.7438, 12.7278)">
<rect x="-0.0650" y="-2.1426" width="0.1300" height="4.4564" ry="0.0400" fill="currentColor"/>
</g>
<g transform="translate(94.0368, 12.7278)">
<path stroke-width="0.0800" stroke-linejoin="round" stroke-linecap="round" stroke="currentColor" fill="currentColor" d="M0.8521 -1.2250C1.2488 -1.7155 1.9896 -1.7155 2.3863 -1.2250L2.3863 -1.2250C1.9896 -1.5955 1.2488 -1.5955 0.8521 -1.2250z"/>
</g>
<g transform="translate(40.6952, 15.2278)">
<path transform="scale(0.0040, -0.0040)" d="M0 -46c0 91 116 182 217 182c63 0 109 -35 109 -90c0 -87 -110 -182 -220 -182c-67 0 -106 39 -106 90z" fill="currentColor"/>
</g>
<g transform="translate(41.9344, 12.7278)">
<rect x="-0.0650" y="-2.1659" width="0.1300" height="4.4797" ry="0.0400" fill="currentColor"/>
</g>
<g transform="translate(42.8858, 14.7278)">
<path transform="scale(0.0040, -0.0040)" d="M0 -46c0 91 116 182 217 182c63 0 109 -35 109 -90c0 -87 -110 -182 -220 -182c-67 0 -106 39 -106 90z" fill="currentColor"/>
</g>
<g transform="translate(44.1250, 12.7278)">
<rect x="-0.0650" y="-2.1893" width="0.1300" height="4.0031" ry="0.0400" fill="currentColor"/>
</g>
<g transform="translate(92.1026, 12.7278)">
<path stroke-width="0.0800" stroke-linejoin="round" stroke-linecap="round" stroke="currentColor" fill="currentColor" d="M0.8521 -1.2250C1.2488 -1.7155 1.9896 -1.7155 2.3863 -1.2250L2.3863 -1.2250C1.9896 -1.5955 1.2488 -1.5955 0.8521 -1.2250z"/>
</g>
<g transform="translate(45.0764, 14.7278)">
<path transform="scale(0.0040, -0.0040)" d="M0 -46c0 91 116 182 217 182c63 0 109 -35 109 -90c0 -87 -110 -182 -220 -182c-67 0 -106 39 -106 90z" fill="currentColor"/>
</g>
<g transform="translate(46.3156, 12.7278)">
<rect x="-0.0650" y="-1.8120" width="0.1300" height="3.6258" ry="0.0400" fill="currentColor"/>
</g>
<g transform="translate(47.0106, 14.7278)">
<path transform="scale(0.0040, -0.0040)" d="M0 -46c0 91 116 182 217 182c63 0 109 -35 109 -90c0 -87 -110 -182 -220 -182c-67 0 -106 39 -106 90z" fill="currentColor"/>
</g>
<g transform="translate(48.2498, 12.7278)">
<rect x="-0.0650" y="-1.8715" width="0.1300" height="3.6853" ry="0.0400" fill="currentColor"/>
</g>
<g transform="translate(90.1684, 12.7278)">
<path stroke-width="0.0800" stroke-linejoin="round" stroke-linecap="round" stroke="currentColor" fill="currentColor" d="M0.8521 -1.2250C1.2488 -1.7155 1.9896 -1.7155 2.3863 -1.2250L2.3863 -1.2250C1.9896 -1.5955 1.2488 -1.5955 0.8521 -1.2250z"/>
</g>
<g transform="translate(48.9448, 14.7278)">
<path transform="scale(0.0040, -0.0040)" d="M0 -46c0 91 116 182 217 182c63 0 109 -35 109 -90c0 -87 -110 -182 -220 -182c-67 0 -106 39 -106 90z" fill="currentColor"/>
</g>
<g transform="translate(50.1840, 12.7278)">
<rect x="-0.0650" y="-1.9310" width="0.1300" height="3.7448" ry="0.0400" fill="currentColor"/>
</g>
<g transform="translate(50.8791, 14.7278)">
<path transform="scale(0.0040, -0.0040)" d="M0 -46c0 91 116 182 217 182c63 0 109 -35 109 -90c0 -87 -110 -182 -220 -182c-67 0 -106 39 -106 90z" fill="currentColor"/>
</g>
<g transform="translate(52.1183, 12.7278)">
<rect x="-0.0650" y="-1.9905" width="0.1300" height="3.8043" ry="0.0400" fill="currentColor"/>
</g>
<g transform="translate(86.3000, 12.7278)">
<path stroke-width="0.0800" stroke-linejoin="round" stroke-linecap="round" stroke="currentColor" fill="currentColor" d="M0.8521 -1.2250C1.2488 -1.7155 1.9896 -1.7155 2.3863 -1.2250L2.3863 -1.2250C1.9896 -1.5955 1.2488 -1.5955 0.8521 -1.2250z"/>
</g>
<g transform="translate(52.8133, 14.7278)">
<path transform="scale(0.0040, -0.0040)" d="M0 -46c0 91 116 182 217 182c63 0 109 -35 109 -90c0 -87 -110 -182 -220 -182c-67 0 -106 39 -106 90z" fill="currentColor"/>
</g>
<g transform="translate(54.0525, 12.7278)">
<rect x="-0.0650" y="-2.0500" width="0.1300" height="3.8638" ry="0.0400" fill="currentColor"/>
</g>
<g transform="translate(54.7475, 14.2278)">
<path transform="scale(0.0040, -0.0040)" d="M0 -46c0 91 116 182 217 182c63 0 109 -35 109 -90c0 -87 -110 -182 -220 -182c-67 0 -106 39 -106 90z" fill="currentColor"/>
</g>
<g transform="translate(55.9867, 12.7278)">
<rect x="-0.0650" y="-2.1095" width="0.1300" height="3.4233" ry="0.0400" fill="currentColor"/>
</g>
<g transform="translate(70.7432, 9.2278)">
<polygon stroke-linejoin="round" stroke-linecap="round" stroke-width="0.0800" fill="currentColor" stroke="currentColor" points="14.6304 -0.2000 14.6304 0.2000 0.0400 0.2000 0.0400 -0.2000"/>
</g>
<g transform="translate(70.7432, 10.0378)">
<polygon stroke-linejoin="round" stroke-linecap="round" stroke-width="0.0800" fill="currentColor" stroke="currentColor" points="14.6304 -0.2000 14.6304 0.2000 0.0400 0.2000 0.0400 -0.2000"/>
</g>
<g transform="translate(76.5210, 10.8478)">
<polygon stroke-linejoin="round" stroke-linecap="round" stroke-width="0.0800" fill="currentColor" stroke="currentColor" points="8.8525 -0.2000 8.8525 0.2000 0.0400 0.2000 0.0400 -0.2000"/>
</g>
<g transform="translate(56.6817, 14.2278)">
<path transform="scale(0.0040, -0.0040)" d="M0 -46c0 91 116 182 217 182c63 0 109 -35 109 -90c0 -87 -110 -182 -220 -182c-67 0 -106 39 -106 90z" fill="currentColor"/>
</g>
<g transform="translate(57.9209, 12.7278)">
<rect x="-0.0650" y="-2.1690" width="0.1300" height="3.4828" ry="0.0400" fill="currentColor"/>
</g>
<g transform="translate(91.7237, 18.3140)">
<text font-family="serif" font-style="italic" font-size="1.7459" text-anchor="start" fill="currentColor">
<tspan>7</tspan>
</text>
</g>
<g transform="translate(58.6159, 14.2278)">
<path transform="scale(0.0040, -0.0040)" d="M0 -46c0 91 116 182 217 182c63 0 109 -35 109 -90c0 -87 -110 -182 -220 -182c-67 0 -106 39 -106 90z" fill="currentColor"/>
</g>
<g transform="translate(59.8551, 12.7278)">
<rect x="-0.0650" y="-2.2285" width="0.1300" height="3.5423" ry="0.0400" fill="currentColor"/>
</g>
<g transform="translate(86.3000, 17.8777)">
<line stroke-linejoin="round" stroke-linecap="round" stroke-width="0.1600" stroke="currentColor" x1="11.9352" y1="-0.2677" x2="11.9352" y2="-0.9677"/>
</g>
<g transform="translate(86.3000, 17.8777)">
<line stroke-linejoin="round" stroke-linecap="round" stroke-width="0.1600" stroke="currentColor" x1="-0.1999" y1="0.0045" x2="-0.1999" y2="-0.6955"/>
</g>
<g transform="translate(86.3000, 17.8777)">
<line stroke-linejoin="round" stroke-linecap="round" stroke-width="0.1600" stroke="currentColor" x1="11.9352" y1="-0.2677" x2="6.9112" y2="-0.1550"/>
</g>
<g transform="translate(86.3000, 17.8777)">
<line stroke-linejoin="round" stroke-linecap="round" stroke-width="0.1600" stroke="currentColor" x1="-0.1999" y1="0.0045" x2="5.0240" y2="-0.1127"/>
</g>
<g transform="translate(60.8065, 14.2278)">
<path transform="scale(0.0040, -0.0040)" d="M0 -46c0 91 116 182 217 182c63 0 109 -35 109 -90c0 -87 -110 -182 -220 -182c-67 0 -106 39 -106 90z" fill="currentColor"/>
</g>
<g transform="translate(62.0457, 12.7278)">
<rect x="-0.0650" y="-2.2959" width="0.1300" height="3.6097" ry="0.0400" fill="currentColor"/>
</g>
<g transform="translate(84.1094, 12.7278)">
<path stroke-width="0.0800" stroke-linejoin="round" stroke-linecap="round" stroke="currentColor" fill="currentColor" d="M1.6392 -1.2250C1.9178 -1.5927 2.3641 -1.5927 2.6427 -1.2250L2.6427 -1.2250C2.3641 -1.4727 1.9178 -1.4727 1.6392 -1.2250z"/>
</g>
<g transform="translate(62.9971, 14.2278)">
<path transform="scale(0.0040, -0.0040)" d="M0 -46c0 91 116 182 217 182c63 0 109 -35 109 -90c0 -87 -110 -182 -220 -182c-67 0 -106 39 -106 90z" fill="currentColor"/>
</g>
<g transform="translate(64.2363, 12.7278)">
<rect x="-0.0650" y="-2.3632" width="0.1300" height="3.6770" ry="0.0400" fill="currentColor"/>
</g>
<g transform="translate(65.1877, 13.7278)">
<path transform="scale(0.0040, -0.0040)" d="M0 -46c0 91 116 182 217 182c63 0 109 -35 109 -90c0 -87 -110 -182 -220 -182c-67 0 -106 39 -106 90z" fill="currentColor"/>
</g>
<g transform="translate(66.4269, 12.7278)">
<rect x="-0.0650" y="-2.4306" width="0.1300" height="3.2444" ry="0.0400" fill="currentColor"/>
</g>
<g transform="translate(81.9187, 12.7278)">
<path stroke-width="0.0800" stroke-linejoin="round" stroke-linecap="round" stroke="currentColor" fill="currentColor" d="M0.8521 1.2250C1.3003 1.7642 2.1945 1.7642 2.6427 1.2250L2.6427 1.2250C2.1945 1.6442 1.3003 1.6442 0.8521 1.2250z"/>
</g>
<g transform="translate(67.3784, 13.7278)">
<path transform="scale(0.0040, -0.0040)" d="M0 -46c0 91 116 182 217 182c63 0 109 -35 109 -90c0 -87 -110 -182 -220 -182c-67 0 -106 39 -106 90z" fill="currentColor"/>
</g>
<g transform="translate(68.6176, 12.7278)">
<rect x="-0.0650" y="-2.4980" width="0.1300" height="3.3118" ry="0.0400" fill="currentColor"/>
</g>
<g transform="translate(69.5690, 13.7278)">
<path transform="scale(0.0040, -0.0040)" d="M0 -46c0 91 116 182 217 182c63 0 109 -35 109 -90c0 -87 -110 -182 -220 -182c-67 0 -106 39 -106 90z" fill="currentColor"/>
</g>
<g transform="translate(70.8082, 12.7278)">
<rect x="-0.0650" y="-3.5000" width="0.1300" height="4.3138" ry="0.0400" fill="currentColor"/>
</g>
<g transform="translate(79.7281, 12.7278)">
<path stroke-width="0.0800" stroke-linejoin="round" stroke-linecap="round" stroke="currentColor" fill="currentColor" d="M0.8521 1.2250C1.3003 1.7642 2.1945 1.7642 2.6427 1.2250L2.6427 1.2250C2.1945 1.6442 1.3003 1.6442 0.8521 1.2250z"/>
</g>
<g transform="translate(72.4579, 13.2278)">
<path transform="scale(0.0040, -0.0040)" d="M0 -46c0 91 116 182 217 182c63 0 109 -35 109 -90c0 -87 -110 -182 -220 -182c-67 0 -106 39 -106 90z" fill="currentColor"/>
</g>
<g transform="translate(73.6971, 12.7278)">
<rect x="-0.0650" y="-3.5000" width="0.1300" height="3.8138" ry="0.0400" fill="currentColor"/>
</g>
<g transform="translate(75.3468, 13.2278)">
<path transform="scale(0.0040, -0.0040)" d="M0 -46c0 91 116 182 217 182c63 0 109 -35 109 -90c0 -87 -110 -182 -220 -182c-67 0 -106 39 -106 90z" fill="currentColor"/>
</g>
<g transform="translate(76.5860, 12.7278)">
<rect x="-0.0650" y="-3.5000" width="0.1300" height="3.8138" ry="0.0400" fill="currentColor"/>
</g>
<g transform="translate(75.3468, 12.7278)">
<path stroke-width="0.0800" stroke-linejoin="round" stroke-linecap="round" stroke="currentColor" fill="currentColor" d="M0.8521 1.2250C1.3003 1.7642 2.1945 1.7642 2.6427 1.2250L2.6427 1.2250C2.1945 1.6442 1.3003 1.6442 0.8521 1.2250z"/>
</g>
<g transform="translate(77.5375, 13.2278)">
<path transform="scale(0.0040, -0.0040)" d="M0 -46c0 91 116 182 217 182c63 0 109 -35 109 -90c0 -87 -110 -182 -220 -182c-67 0 -106 39 -106 90z" fill="currentColor"/>
</g>
<g transform="translate(78.7767, 12.7278)">
<rect x="-0.0650" y="-3.5000" width="0.1300" height="3.8138" ry="0.0400" fill="currentColor"/>
</g>
<g transform="translate(79.7281, 12.7278)">
<path transform="scale(0.0040, -0.0040)" d="M0 -46c0 91 116 182 217 182c63 0 109 -35 109 -90c0 -87 -110 -182 -220 -182c-67 0 -106 39 -106 90z" fill="currentColor"/>
</g>
<g transform="translate(80.9673, 12.7278)">
<rect x="-0.0650" y="-3.5000" width="0.1300" height="3.3138" ry="0.0400" fill="currentColor"/>
</g>
<g transform="translate(80.5234, 8.4556)">
<text font-family="serif" font-style="italic" font-size="1.7459" text-anchor="start" fill="currentColor">
<tspan>5</tspan>
</text>
</g>
<g transform="translate(81.9187, 12.7278)">
<path transform="scale(0.0040, -0.0040)" d="M0 -46c0 91 116 182 217 182c63 0 109 -35 109 -90c0 -87 -110 -182 -220 -182c-67 0 -106 39 -106 90z" fill="currentColor"/>
</g>
<g transform="translate(83.1579, 12.7278)">
<rect x="-0.0650" y="-3.5000" width="0.1300" height="3.3138" ry="0.0400" fill="currentColor"/>
</g>
<g transform="translate(76.5210, 7.8878)">
<line stroke-linejoin="round" stroke-linecap="round" stroke-width="0.1600" stroke="currentColor" x1="9.0925" y1="0.0000" x2="9.0925" y2="0.7000"/>
</g>
<g transform="translate(76.5210, 7.8878)">
<line stroke-linejoin="round" stroke-linecap="round" stroke-width="0.1600" stroke="currentColor" x1="-0.2000" y1="-0.0000" x2="-0.2000" y2="0.7000"/>
</g>
<g transform="translate(76.5210, 7.8878)">
<line stroke-linejoin="round" stroke-linecap="round" stroke-width="0.1600" stroke="currentColor" x1="9.0925" y1="0.0000" x2="5.4901" y2="0.0000"/>
</g>
<g transform="translate(76.5210, 7.8878)">
<line stroke-linejoin="round" stroke-linecap="round" stroke-width="0.1600" stroke="currentColor" x1="-0.2000" y1="-0.0000" x2="3.6024" y2="0.0000"/>
</g>
<g transform="translate(84.1094, 12.7278)">
<path transform="scale(0.0040, -0.0040)" d="M0 -46c0 91 116 182 217 182c63 0 109 -35 109 -90c0 -87 -110 -182 -220 -182c-67 0 -106 39 -106 90z" fill="currentColor"/>
</g>
<g transform="translate(85.3486, 12.7278)">
<rect x="-0.0650" y="-3.5000" width="0.1300" height="3.3138" ry="0.0400" fill="currentColor"/>
</g>
<g transform="translate(72.4579, 12.7278)">
<path stroke-width="0.0800" stroke-linejoin="round" stroke-linecap="round" stroke="currentColor" fill="currentColor" d="M0.8521 1.2250C1.4250 1.8680 2.7681 1.8680 3.3410 1.2250L3.3410 1.2250C2.7681 1.7480 1.4250 1.7480 0.8521 1.2250z"/>
</g>
<g transform="translate(86.3000, 12.7278)">
<path transform="scale(0.0040, -0.0040)" d="M0 -46c0 91 116 182 217 182c63 0 109 -35 109 -90c0 -87 -110 -182 -220 -182c-67 0 -106 39 -106 90z" fill="currentColor"/>
</g>
<g transform="translate(86.3650, 12.7278)">
<rect x="-0.0650" y="0.1862" width="0.1300" height="3.6223" ry="0.0400" fill="currentColor"/>
</g>
<g transform="translate(88.2342, 12.7278)">
<path transform="scale(0.0040, -0.0040)" d="M0 -46c0 91 116 182 217 182c63 0 109 -35 109 -90c0 -87 -110 -182 -220 -182c-67 0 -106 39 -106 90z" fill="currentColor"/>
</g>
<g transform="translate(88.2992, 12.7278)">
<rect x="-0.0650" y="0.1862" width="0.1300" height="3.5785" ry="0.0400" fill="currentColor"/>
</g>
<g transform="translate(46.2506, 10.9178)">
<polygon stroke-linejoin="round" stroke-linecap="round" stroke-width="0.0800" fill="currentColor" stroke="currentColor" points="22.3919 -0.8900 22.3919 -0.4900 0.0400 0.2000 0.0400 -0.2000"/>
</g>
<g transform="translate(46.2506, 11.7278)">
<polygon stroke-linejoin="round" stroke-linecap="round" stroke-width="0.0800" fill="currentColor" stroke="currentColor" points="22.3919 -0.8900 22.3919 -0.4900 0.0400 0.2000 0.0400 -0.2000"/>
</g>
<g transform="translate(46.2506, 12.5378)">
<polygon stroke-linejoin="round" stroke-linecap="round" stroke-width="0.0800" fill="currentColor" stroke="currentColor" points="22.3919 -0.8900 22.3919 -0.4900 0.0400 0.2000 0.0400 -0.2000"/>
</g>
<g transform="translate(90.1684, 12.2278)">
<path transform="scale(0.0040, -0.0040)" d="M0 -46c0 91 116 182 217 182c63 0 109 -35 109 -90c0 -87 -110 -182 -220 -182c-67 0 -106 39 -106 90z" fill="currentColor"/>
</g>
<g transform="translate(90.2334, 12.7278)">
<rect x="-0.0650" y="-0.3138" width="0.1300" height="4.0346" ry="0.0400" fill="currentColor"/>
</g>
<g transform="translate(67.3784, 12.7278)">
<path stroke-width="0.0800" stroke-linejoin="round" stroke-linecap="round" stroke="currentColor" fill="currentColor" d="M0.8521 2.0000C1.3003 2.5392 2.1945 2.5392 2.6427 2.0000L2.6427 2.0000C2.1945 2.4192 1.3003 2.4192 0.8521 2.0000z"/>
</g>
<g transform="translate(92.1026, 12.2278)">
<path transform="scale(0.0040, -0.0040)" d="M0 -46c0 91 116 182 217 182c63 0 109 -35 109 -90c0 -87 -110 -182 -220 -182c-67 0 -106 39 -106 90z" fill="currentColor"/>
</g>
<g transform="translate(92.1676, 12.7278)">
<rect x="-0.0650" y="-0.3138" width="0.1300" height="3.9907" ry="0.0400" fill="currentColor"/>
</g>
<g transform="translate(94.0368, 12.2278)">
<path transform="scale(0.0040, -0.0040)" d="M0 -46c0 91 116 182 217 182c63 0 109 -35 109 -90c0 -87 -110 -182 -220 -182c-67 0 -106 39 -106 90z" fill="currentColor"/>
</g>
<g transform="translate(94.1018, 12.7278)">
<rect x="-0.0650" y="-0.3138" width="0.1300" height="3.9469" ry="0.0400" fill="currentColor"/>
</g>
<g transform="translate(65.1877, 12.7278)">
<path stroke-width="0.0800" stroke-linejoin="round" stroke-linecap="round" stroke="currentColor" fill="currentColor" d="M0.8521 2.0000C1.3003 2.5392 2.1945 2.5392 2.6427 2.0000L2.6427 2.0000C2.1945 2.4192 1.3003 2.4192 0.8521 2.0000z"/>
</g>
<g transform="translate(95.9710, 12.2278)">
<path transform="scale(0.0040, -0.0040)" d="M0 -46c0 91 116 182 217 182c63 0 109 -35 109 -90c0 -87 -110 -182 -220 -182c-67 0 -106 39 -106 90z" fill="currentColor"/>
</g>
<g transform="translate(96.0360, 12.7278)">
<rect x="-0.0650" y="-0.3138" width="0.1300" height="3.9030" ry="0.0400" fill="currentColor"/>
</g>
<g transform="translate(97.9052, 12.2278)">
<path transform="scale(0.0040, -0.0040)" d="M0 -46c0 91 116 182 217 182c63 0 109 -35 109 -90c0 -87 -110 -182 -220 -182c-67 0 -106 39 -106 90z" fill="currentColor"/>
</g>
<g transform="translate(97.9702, 12.7278)">
<rect x="-0.0650" y="-0.3138" width="0.1300" height="3.8591" ry="0.0400" fill="currentColor"/>
</g>
<g transform="translate(60.8065, 12.7278)">
<path stroke-width="0.0800" stroke-linejoin="round" stroke-linecap="round" stroke="currentColor" fill="currentColor" d="M0.8521 2.5000C1.3003 3.0392 2.1945 3.0392 2.6427 2.5000L2.6427 2.5000C2.1945 2.9192 1.3003 2.9192 0.8521 2.5000z"/>
</g>
<g transform="translate(99.8394, 12.2278)">
<path transform="scale(0.0040, -0.0040)" d="M0 -46c0 91 116 182 217 182c63 0 109 -35 109 -90c0 -87 -110 -182 -220 -182c-67 0 -106 39 -106 90z" fill="currentColor"/>
</g>
<g transform="translate(99.9044, 12.7278)">
<rect x="-0.0650" y="-0.3138" width="0.1300" height="3.8153" ry="0.0400" fill="currentColor"/>
</g>
<g transform="translate(102.0300, 12.7278)">
<path transform="scale(0.0040, -0.0040)" d="M154 455c79 0 46 -98 91 -98c15 0 46 49 52 63c3 6 8 9 14 9s12 -3 14 -9l-216 -920c-8 -7 -18 -10 -28 -10s-19 3 -27 10l86 327c-35 -13 -71 -23 -108 -23c-58 0 -86 41 -86 80c0 36 24 71 71 71c79 0 46 -98 91 -98c17 0 54 54 59 71l39 149c-34 -12 -70 -23 -106 -23
c-58 0 -85 41 -85 80c0 36 24 71 71 71c79 0 45 -98 90 -98c16 0 52 51 56 68l40 151c-33 -12 -68 -22 -103 -22c-58 0 -86 41 -86 80c0 36 24 71 71 71z" fill="currentColor"/>
</g>
<g transform="translate(58.6159, 12.7278)">
<path stroke-width="0.0800" stroke-linejoin="round" stroke-linecap="round" stroke="currentColor" fill="currentColor" d="M0.8521 2.5000C1.3003 3.0392 2.1945 3.0392 2.6427 2.5000L2.6427 2.5000C2.1945 2.9192 1.3003 2.9192 0.8521 2.5000z"/>
</g>
<g transform="translate(104.2165, 12.7278)">
<path transform="scale(0.0040, -0.0040)" d="M154 455c79 0 46 -98 91 -98c15 0 46 49 52 63c3 6 8 9 14 9s12 -3 14 -9l-216 -920c-8 -7 -18 -10 -28 -10s-19 3 -27 10l86 327c-35 -13 -71 -23 -108 -23c-58 0 -86 41 -86 80c0 36 24 71 71 71c79 0 46 -98 91 -98c17 0 54 54 59 71l39 149c-34 -12 -70 -23 -106 -23
c-58 0 -85 41 -85 80c0 36 24 71 71 71c79 0 45 -98 90 -98c16 0 52 51 56 68l40 151c-33 -12 -68 -22 -103 -22c-58 0 -86 41 -86 80c0 36 24 71 71 71z" fill="currentColor"/>
</g>
<g transform="translate(106.4029, 12.7278)">
<path transform="scale(0.0040, -0.0040)" d="M154 455c79 0 46 -98 91 -98c15 0 46 49 52 63c3 6 8 9 14 9s12 -3 14 -9l-216 -920c-8 -7 -18 -10 -28 -10s-19 3 -27 10l86 327c-35 -13 -71 -23 -108 -23c-58 0 -86 41 -86 80c0 36 24 71 71 71c79 0 46 -98 91 -98c17 0 54 54 59 71l39 149c-34 -12 -70 -23 -106 -23
c-58 0 -85 41 -85 80c0 36 24 71 71 71c79 0 45 -98 90 -98c16 0 52 51 56 68l40 151c-33 -12 -68 -22 -103 -22c-58 0 -86 41 -86 80c0 36 24 71 71 71z" fill="currentColor"/>
</g>
<g transform="translate(63.7925, 9.5904)">
<text font-family="serif" font-style="italic" font-size="1.7459" text-anchor="start" fill="currentColor">
<tspan>5</tspan>
</text>
</g>
<g transform="translate(108.5893, 12.7278)">
<path transform="scale(0.0040, -0.0040)" d="M154 455c79 0 46 -98 91 -98c15 0 46 49 52 63c3 6 8 9 14 9s12 -3 14 -9l-216 -920c-8 -7 -18 -10 -28 -10s-19 3 -27 10l86 327c-35 -13 -71 -23 -108 -23c-58 0 -86 41 -86 80c0 36 24 71 71 71c79 0 46 -98 91 -98c17 0 54 54 59 71l39 149c-34 -12 -70 -23 -106 -23
c-58 0 -85 41 -85 80c0 36 24 71 71 71c79 0 45 -98 90 -98c16 0 52 51 56 68l40 151c-33 -12 -68 -22 -103 -22c-58 0 -86 41 -86 80c0 36 24 71 71 71z" fill="currentColor"/>
</g>
<g transform="translate(59.7901, 9.1573)">
<line stroke-linejoin="round" stroke-linecap="round" stroke-width="0.1600" stroke="currentColor" x1="9.0924" y1="-0.2756" x2="9.0924" y2="0.4244"/>
</g>
<g transform="translate(59.7901, 9.1573)">
<line stroke-linejoin="round" stroke-linecap="round" stroke-width="0.1600" stroke="currentColor" x1="-0.1999" y1="0.0061" x2="-0.1999" y2="0.7061"/>
</g>
<g transform="translate(59.7901, 9.1573)">
<line stroke-linejoin="round" stroke-linecap="round" stroke-width="0.1600" stroke="currentColor" x1="9.0924" y1="-0.2756" x2="5.4896" y2="-0.1664"/>
</g>
<g transform="translate(59.7901, 9.1573)">
<line stroke-linejoin="round" stroke-linecap="round" stroke-width="0.1600" stroke="currentColor" x1="-0.1999" y1="0.0061" x2="3.6028" y2="-0.1092"/>
</g>
<g transform="translate(25.2088, 12.7278)">
<path stroke-width="0.0800" stroke-linejoin="round" stroke-linecap="round" stroke="currentColor" fill="currentColor" d="M0.8521 3.7500C1.4250 4.3930 2.7681 4.3930 3.3410 3.7500L3.3410 3.7500C2.7681 4.2730 1.4250 4.2730 0.8521 3.7500z"/>
</g>
<g transform="translate(28.0977, 12.7278)">
<path stroke-width="0.0800" stroke-linejoin="round" stroke-linecap="round" stroke="currentColor" fill="currentColor" d="M0.8521 3.7500C1.3326 4.3180 2.3323 4.3180 2.8128 3.7500L2.8128 3.7500C2.3323 4.1980 1.3326 4.1980 0.8521 3.7500z"/>
</g>
<g transform="translate(32.2909, 12.7278)">
<path stroke-width="0.0800" stroke-linejoin="round" stroke-linecap="round" stroke="currentColor" fill="currentColor" d="M0.8521 3.5000C1.2275 3.9694 1.9092 3.9694 2.2845 3.5000L2.2845 3.5000C1.9092 3.8494 1.2275 3.8494 0.8521 3.5000z"/>
</g>
<g transform="translate(35.2975, 9.2913)">
<line stroke-linejoin="round" stroke-linecap="round" stroke-width="0.1600" stroke="currentColor" x1="9.0925" y1="-0.0956" x2="9.0925" y2="0.6044"/>
</g>
<g transform="translate(35.2975, 9.2913)">
<line stroke-linejoin="round" stroke-linecap="round" stroke-width="0.1600" stroke="currentColor" x1="-0.2000" y1="0.0021" x2="-0.2000" y2="0.7021"/>
</g>
<g transform="translate(35.2975, 9.2913)">
<line stroke-linejoin="round" stroke-linecap="round" stroke-width="0.1600" stroke="currentColor" x1="9.0925" y1="-0.0956" x2="5.4901" y2="-0.0577"/>
</g>
<g transform="translate(35.2975, 9.2913)">
<line stroke-linejoin="round" stroke-linecap="round" stroke-width="0.1600" stroke="currentColor" x1="-0.2000" y1="0.0021" x2="3.6024" y2="-0.0379"/>
</g>
<g transform="translate(39.2999, 9.8123)">
<text font-family="serif" font-style="italic" font-size="1.7459" text-anchor="start" fill="currentColor">
<tspan>5</tspan>
</text>
</g>
<g transform="translate(34.1233, 12.7278)">
<path stroke-width="0.0800" stroke-linejoin="round" stroke-linecap="round" stroke="currentColor" fill="currentColor" d="M0.8521 3.5000C1.3003 4.0392 2.1945 4.0392 2.6427 3.5000L2.6427 3.5000C2.1945 3.9192 1.3003 3.9192 0.8521 3.5000z"/>
</g>
<g transform="translate(36.3139, 12.7278)">
<path stroke-width="0.0800" stroke-linejoin="round" stroke-linecap="round" stroke="currentColor" fill="currentColor" d="M0.8521 3.5000C1.3003 4.0392 2.1945 4.0392 2.6427 3.5000L2.6427 3.5000C2.1945 3.9192 1.3003 3.9192 0.8521 3.5000z"/>
</g>
<g transform="translate(38.5046, 12.7278)">
<path stroke-width="0.0800" stroke-linejoin="round" stroke-linecap="round" stroke="currentColor" fill="currentColor" d="M0.8521 3.5000C1.3003 4.0392 2.1945 4.0392 2.6427 3.5000L2.6427 3.5000C2.1945 3.9192 1.3003 3.9192 0.8521 3.5000z"/>
</g>
<g transform="translate(42.8858, 12.7278)">
<path stroke-width="0.0800" stroke-linejoin="round" stroke-linecap="round" stroke="currentColor" fill="currentColor" d="M0.8521 2.7500C1.3003 3.2892 2.1945 3.2892 2.6427 2.7500L2.6427 2.7500C2.1945 3.1692 1.3003 3.1692 0.8521 2.7500z"/>
</g>
<g transform="translate(46.2506, 9.5738)">
<line stroke-linejoin="round" stroke-linecap="round" stroke-width="0.1600" stroke="currentColor" x1="11.9351" y1="-0.3631" x2="11.9351" y2="0.3369"/>
</g>
<g transform="translate(46.2506, 9.5738)">
<line stroke-linejoin="round" stroke-linecap="round" stroke-width="0.1600" stroke="currentColor" x1="-0.1999" y1="0.0061" x2="-0.1999" y2="0.7061"/>
</g>
<g transform="translate(46.2506, 9.5738)">
<line stroke-linejoin="round" stroke-linecap="round" stroke-width="0.1600" stroke="currentColor" x1="11.9351" y1="-0.3631" x2="6.9110" y2="-0.2102"/>
</g>
<g transform="translate(46.2506, 9.5738)">
<line stroke-linejoin="round" stroke-linecap="round" stroke-width="0.1600" stroke="currentColor" x1="-0.1999" y1="0.0061" x2="5.0241" y2="-0.1528"/>
</g>
<g transform="translate(51.6744, 9.9631)">
<text font-family="serif" font-style="italic" font-size="1.7459" text-anchor="start" fill="currentColor">
<tspan>7</tspan>
</text>
</g>
<g transform="translate(26.3830, 10.7278)">
<polygon stroke-linejoin="round" stroke-linecap="round" stroke-width="0.0800" fill="currentColor" stroke="currentColor" points="17.7670 -0.3900 17.7670 0.0100 0.0400 0.2000 0.0400 -0.2000"/>
</g>
<g transform="translate(26.3830, 11.6011)">
<polygon stroke-linejoin="round" stroke-linecap="round" stroke-width="0.0800" fill="currentColor" stroke="currentColor" points="17.7670 -0.3900 17.7670 0.0100 0.0400 0.2000 0.0400 -0.2000"/>
</g>
<g transform="translate(29.2719, 12.4436)">
<polygon stroke-linejoin="round" stroke-linecap="round" stroke-width="0.0800" fill="currentColor" stroke="currentColor" points="14.8781 -0.3592 14.8781 0.0408 0.0400 0.2000 0.0400 -0.2000"/>
</g>
<g transform="translate(31.6326, 13.2918)">
<polygon stroke-linejoin="round" stroke-linecap="round" stroke-width="0.0800" fill="currentColor" stroke="currentColor" points="1.9224 -0.2209 1.9224 0.1791 0.0400 0.2000 0.0400 -0.2000"/>
</g>
<g transform="translate(45.0764, 12.7278)">
<path stroke-width="0.0800" stroke-linejoin="round" stroke-linecap="round" stroke="currentColor" fill="currentColor" d="M0.8521 2.7500C1.2488 3.2405 1.9896 3.2405 2.3863 2.7500L2.3863 2.7500C1.9896 3.1205 1.2488 3.1205 0.8521 2.7500z"/>
</g>
<g transform="translate(47.0106, 12.7278)">
<path stroke-width="0.0800" stroke-linejoin="round" stroke-linecap="round" stroke="currentColor" fill="currentColor" d="M0.8521 2.7500C1.2488 3.2405 1.9896 3.2405 2.3863 2.7500L2.3863 2.7500C1.9896 3.1205 1.2488 3.1205 0.8521 2.7500z"/>
</g>
<g transform="translate(48.9448, 12.7278)">
<path stroke-width="0.0800" stroke-linejoin="round" stroke-linecap="round" stroke="currentColor" fill="currentColor" d="M0.8521 2.7500C1.2488 3.2405 1.9896 3.2405 2.3863 2.7500L2.3863 2.7500C1.9896 3.1205 1.2488 3.1205 0.8521 2.7500z"/>
</g>
<g transform="translate(50.8791, 12.7278)">
<path stroke-width="0.0800" stroke-linejoin="round" stroke-linecap="round" stroke="currentColor" fill="currentColor" d="M0.8521 2.7500C1.2488 3.2405 1.9896 3.2405 2.3863 2.7500L2.3863 2.7500C1.9896 3.1205 1.2488 3.1205 0.8521 2.7500z"/>
</g>
<g transform="translate(54.7475, 12.7278)">
<path stroke-width="0.0800" stroke-linejoin="round" stroke-linecap="round" stroke="currentColor" fill="currentColor" d="M0.8521 2.5000C1.2488 2.9905 1.9896 2.9905 2.3863 2.5000L2.3863 2.5000C1.9896 2.8705 1.2488 2.8705 0.8521 2.5000z"/>
</g>
<g transform="translate(56.6817, 12.7278)">
<path stroke-width="0.0800" stroke-linejoin="round" stroke-linecap="round" stroke="currentColor" fill="currentColor" d="M0.8521 2.5000C1.2488 2.9905 1.9896 2.9905 2.3863 2.5000L2.3863 2.5000C1.9896 2.8705 1.2488 2.8705 0.8521 2.5000z"/>
</g>
<g transform="translate(51.5735, 162.8440)">
<a xlink:href="https://lilypond.org">
<rect x="0.0000" y="-0.4748" width="16.3546" height="2.0024" fill="none" stroke="none" stroke-width="0.0"/>
</a>
</g>
<g transform="translate(51.5735, 162.8440)">
<text font-family="serif" font-size="2.2000" text-anchor="start" fill="currentColor">
<tspan>LilyPond v2.25.23</tspan>
</text>
</g>
</svg>
