<svg xmlns="http://www.w3.org/2000/svg" xmlns:xlink="http://www.w3.org/1999/xlink" version="1.2" width="165.00mm" height="20.46mm" viewBox="8.5358 -0.0000 93.8941 11.6439">
<style type="text/css">
<![CDATA[
tspan { white-space: pre; }
]]>
</style>
<g transform="translate(0.0000, 9.0372)">
<rect x="21.5965" y="-0.1000" width="1.8944" height="0.2000" ry="0.1000" fill="currentColor"/>
</g>
<g transform="translate(0.0000, 9.0372)">
<rect x="19.2359" y="-0.1000" width="1.9563" height="0.2000" ry="0.1000" fill="currentColor"/>
</g>
<g transform="translate(0.0000, 9.0372)">
<rect x="16.3469" y="-0.1000" width="1.9563" height="0.2000" ry="0.1000" fill="currentColor"/>
</g>
<g transform="translate(8.5358, 8.0372)">
<line stroke-linejoin="round" stroke-linecap="round" stroke-width="0.1000" stroke="currentColor" x1="0.0500" y1="0" x2="93.8441" y2="0"/>
</g>
<g transform="translate(8.5358, 7.0372)">
<line stroke-linejoin="round" stroke-linecap="round" stroke-width="0.1000" stroke="currentColor" x1="0.0500" y1="0" x2="93.8441" y2="0"/>
</g>
<g transform="translate(8.5358, 6.0372)">
<line stroke-linejoin="round" stroke-linecap="round" stroke-width="0.1000" stroke="currentColor" x1="0.0500" y1="0" x2="93.8441" y2="0"/>
</g>
<g transform="translate(8.5358, 5.0372)">
<line stroke-linejoin="round" stroke-linecap="round" stroke-width="0.1000" stroke="currentColor" x1="0.0500" y1="0" x2="93.8441" y2="0"/>
</g>
<g transform="translate(8.5358, 4.0372)">
<line stroke-linejoin="round" stroke-linecap="round" stroke-width="0.1000" stroke="currentColor" x1="0.0500" y1="0" x2="93.8441" y2="0"/>
</g>
<g transform="translate(102.2399, 6.0372)">
<rect x="0.0000" y="-2.0000" width="0.1900" height="4.0000" ry="0.0000" fill="currentColor"/>
</g>
<g transform="translate(77.7642, 8.2272)">
<polygon stroke-linejoin="round" stroke-linecap="round" stroke-width="0.0800" fill="currentColor" stroke="currentColor" points="13.6294 -0.5100 13.6294 -0.1100 0.0400 0.2000 0.0400 -0.2000"/>
</g>
<g transform="translate(77.7642, 9.0372)">
<polygon stroke-linejoin="round" stroke-linecap="round" stroke-width="0.0800" fill="currentColor" stroke="currentColor" points="13.6294 -0.5100 13.6294 -0.1100 0.0400 0.2000 0.0400 -0.2000"/>
</g>
<g transform="translate(77.7642, 9.8472)">
<polygon stroke-linejoin="round" stroke-linecap="round" stroke-width="0.0800" fill="currentColor" stroke="currentColor" points="13.6294 -0.5100 13.6294 -0.1100 0.0400 0.2000 0.0400 -0.2000"/>
</g>
<g transform="translate(16.6730, 9.0372)">
<path transform="scale(0.0040, -0.0040)" d="M0 -46c0 91 116 182 217 182c63 0 109 -35 109 -90c0 -87 -110 -182 -220 -182c-67 0 -106 39 -106 90z" fill="currentColor"/>
</g>
<g transform="translate(9.3358, 7.0372)">
<path transform="scale(0.0040, -0.0040)" d="M266 -635h-6c-108 0 -195 88 -195 197c0 58 53 103 112 103c54 0 95 -47 95 -103c0 -52 -43 -95 -95 -95c-11 0 -21 2 -31 6c26 -39 68 -65 117 -65h4zM401 151c19 -89 48 -242 60 -354c76 27 112 94 112 163c0 89 -60 179 -172 191zM74 28c0 -112 98 -247 278 -247
c21 0 44 2 68 6c-7 64 -29 203 -63 364c-79 -8 -124 -61 -124 -119c0 -44 25 -91 81 -123c5 -5 7 -10 7 -15c0 -11 -10 -22 -22 -22c-15 0 -126 62 -126 187c0 88 58 174 160 197c-14 58 -29 117 -46 175c-107 -121 -213 -243 -213 -403zM357 1194c28 0 143 -206 143 -361
c0 -143 -86 -255 -180 -364c21 -68 39 -138 56 -207c5 0 10 1 14 1c155 0 255 -129 255 -262c0 -113 -74 -212 -180 -245c3 -35 5 -70 5 -105c0 -19 -1 -39 -2 -58c-7 -119 -88 -225 -202 -228l1 43c93 2 153 92 159 191c1 18 2 37 2 55c0 31 -1 61 -4 92
c-28 -5 -55 -8 -80 -8c-239 0 -342 217 -342 374c0 177 131 306 248 441c-29 96 -52 170 -52 346c0 189 144 295 159 295zM247 782c0 -55 12 -115 35 -190c83 100 147 202 147 326c0 40 -6 82 -21 127c-49 -24 -161 -97 -161 -263z" fill="currentColor"/>
</g>
<g transform="translate(13.4208, 6.0372)">
<path transform="scale(0.0040, -0.0040)" d="M433 -89c0 -22 -50 -174 -183 -174c-59 0 -250 19 -250 263c0 62 18 262 250 262c116 0 176 -106 176 -163c0 -40 -30 -72 -67 -72c-31 0 -75 25 -75 75c0 38 27 77 72 77c4 0 9 0 14 -1c-28 37 -72 59 -120 59c-106 0 -113 -73 -113 -186v-51v-51
c0 -113 7 -187 113 -187c80 0 139 70 158 151c2 7 7 10 12 10c6 0 13 -4 13 -12z" fill="currentColor"/>
</g>
<g transform="translate(13.4208, 2.6727)">
<rect x="1.0449" y="-2.6727" width="0.1158" height="2.5129" ry="0.0193" fill="currentColor"/>
</g>
<g transform="translate(13.4208, 2.6727)">
<path transform="scale(0.0036, -0.0036)" d="M0 -45c0 92 113 182 214 182c64 0 112 -36 112 -92c0 -88 -108 -182 -217 -182c-68 0 -109 39 -109 92z" fill="currentColor"/>
</g>
<g transform="translate(14.5815, 3.1614)">
<text font-family="serif" font-size="2.2000" text-anchor="start" fill="currentColor">
<tspan> = 54</tspan>
</text>
</g>
<g transform="translate(17.9122, 6.0372)">
<rect x="-0.0650" y="-2.0007" width="0.1300" height="4.8145" ry="0.0400" fill="currentColor"/>
</g>
<g transform="translate(95.8847, 11.4465)">
<text font-family="serif" font-style="italic" font-size="1.7459" text-anchor="start" fill="currentColor">
<tspan>5</tspan>
</text>
</g>
<g transform="translate(19.5619, 9.0372)">
<path transform="scale(0.0040, -0.0040)" d="M0 -46c0 91 116 182 217 182c63 0 109 -35 109 -90c0 -87 -110 -182 -220 -182c-67 0 -106 39 -106 90z" fill="currentColor"/>
</g>
<g transform="translate(20.8011, 6.0372)">
<rect x="-0.0650" y="-2.0315" width="0.1300" height="4.8453" ry="0.0400" fill="currentColor"/>
</g>
<g transform="translate(91.3036, 10.8787)">
<line stroke-linejoin="round" stroke-linecap="round" stroke-width="0.1600" stroke="currentColor" x1="10.2499" y1="-0.0000" x2="10.2499" y2="-0.7000"/>
</g>
<g transform="translate(91.3036, 10.8787)">
<line stroke-linejoin="round" stroke-linecap="round" stroke-width="0.1600" stroke="currentColor" x1="-0.2000" y1="-0.0000" x2="-0.2000" y2="-0.7000"/>
</g>
<g transform="translate(91.3036, 10.8787)">
<line stroke-linejoin="round" stroke-linecap="round" stroke-width="0.1600" stroke="currentColor" x1="10.2499" y1="-0.0000" x2="6.0688" y2="-0.0000"/>
</g>
<g transform="translate(91.3036, 10.8787)">
<line stroke-linejoin="round" stroke-linecap="round" stroke-width="0.1600" stroke="currentColor" x1="-0.2000" y1="-0.0000" x2="4.1811" y2="-0.0000"/>
</g>
<g transform="translate(21.9226, 9.0372)">
<path transform="scale(0.0040, -0.0040)" d="M0 -46c0 91 116 182 217 182c63 0 109 -35 109 -90c0 -87 -110 -182 -220 -182c-67 0 -106 39 -106 90z" fill="currentColor"/>
</g>
<g transform="translate(23.1618, 6.0372)">
<rect x="-0.0650" y="-2.0567" width="0.1300" height="4.8705" ry="0.0400" fill="currentColor"/>
</g>
<g transform="translate(89.3694, 6.0372)">
<path stroke-width="0.0800" stroke-linejoin="round" stroke-linecap="round" stroke="currentColor" fill="currentColor" d="M0.8521 -1.2250C1.2488 -1.7155 1.9896 -1.7155 2.3863 -1.2250L2.3863 -1.2250C1.9896 -1.5955 1.2488 -1.5955 0.8521 -1.2250z"/>
</g>
<g transform="translate(23.7550, 8.5372)">
<path transform="scale(0.0040, -0.0040)" d="M0 -46c0 91 116 182 217 182c63 0 109 -35 109 -90c0 -87 -110 -182 -220 -182c-67 0 -106 39 -106 90z" fill="currentColor"/>
</g>
<g transform="translate(24.9942, 6.0372)">
<rect x="-0.0650" y="-2.0763" width="0.1300" height="4.3901" ry="0.0400" fill="currentColor"/>
</g>
<g transform="translate(25.5875, 8.5372)">
<path transform="scale(0.0040, -0.0040)" d="M0 -46c0 91 116 182 217 182c63 0 109 -35 109 -90c0 -87 -110 -182 -220 -182c-67 0 -106 39 -106 90z" fill="currentColor"/>
</g>
<g transform="translate(26.8267, 6.0372)">
<rect x="-0.0650" y="-2.0958" width="0.1300" height="4.4096" ry="0.0400" fill="currentColor"/>
</g>
<g transform="translate(87.4352, 6.0372)">
<path stroke-width="0.0800" stroke-linejoin="round" stroke-linecap="round" stroke="currentColor" fill="currentColor" d="M0.8521 -1.2250C1.2488 -1.7155 1.9896 -1.7155 2.3863 -1.2250L2.3863 -1.2250C1.9896 -1.5955 1.2488 -1.5955 0.8521 -1.2250z"/>
</g>
<g transform="translate(27.7781, 8.5372)">
<path transform="scale(0.0040, -0.0040)" d="M0 -46c0 91 116 182 217 182c63 0 109 -35 109 -90c0 -87 -110 -182 -220 -182c-67 0 -106 39 -106 90z" fill="currentColor"/>
</g>
<g transform="translate(29.0173, 6.0372)">
<rect x="-0.0650" y="-2.1192" width="0.1300" height="4.4330" ry="0.0400" fill="currentColor"/>
</g>
<g transform="translate(29.9687, 8.5372)">
<path transform="scale(0.0040, -0.0040)" d="M0 -46c0 91 116 182 217 182c63 0 109 -35 109 -90c0 -87 -110 -182 -220 -182c-67 0 -106 39 -106 90z" fill="currentColor"/>
</g>
<g transform="translate(31.2079, 6.0372)">
<rect x="-0.0650" y="-2.1426" width="0.1300" height="4.4564" ry="0.0400" fill="currentColor"/>
</g>
<g transform="translate(85.5010, 6.0372)">
<path stroke-width="0.0800" stroke-linejoin="round" stroke-linecap="round" stroke="currentColor" fill="currentColor" d="M0.8521 -1.2250C1.2488 -1.7155 1.9896 -1.7155 2.3863 -1.2250L2.3863 -1.2250C1.9896 -1.5955 1.2488 -1.5955 0.8521 -1.2250z"/>
</g>
<g transform="translate(32.1594, 8.5372)">
<path transform="scale(0.0040, -0.0040)" d="M0 -46c0 91 116 182 217 182c63 0 109 -35 109 -90c0 -87 -110 -182 -220 -182c-67 0 -106 39 -106 90z" fill="currentColor"/>
</g>
<g transform="translate(33.3986, 6.0372)">
<rect x="-0.0650" y="-2.1659" width="0.1300" height="4.4797" ry="0.0400" fill="currentColor"/>
</g>
<g transform="translate(34.3500, 8.0372)">
<path transform="scale(0.0040, -0.0040)" d="M0 -46c0 91 116 182 217 182c63 0 109 -35 109 -90c0 -87 -110 -182 -220 -182c-67 0 -106 39 -106 90z" fill="currentColor"/>
</g>
<g transform="translate(35.5892, 6.0372)">
<rect x="-0.0650" y="-2.1893" width="0.1300" height="4.0031" ry="0.0400" fill="currentColor"/>
</g>
<g transform="translate(83.5668, 6.0372)">
<path stroke-width="0.0800" stroke-linejoin="round" stroke-linecap="round" stroke="currentColor" fill="currentColor" d="M0.8521 -1.2250C1.2488 -1.7155 1.9896 -1.7155 2.3863 -1.2250L2.3863 -1.2250C1.9896 -1.5955 1.2488 -1.5955 0.8521 -1.2250z"/>
</g>
<g transform="translate(36.5406, 8.0372)">
<path transform="scale(0.0040, -0.0040)" d="M0 -46c0 91 116 182 217 182c63 0 109 -35 109 -90c0 -87 -110 -182 -220 -182c-67 0 -106 39 -106 90z" fill="currentColor"/>
</g>
<g transform="translate(37.7798, 6.0372)">
<rect x="-0.0650" y="-1.8120" width="0.1300" height="3.6258" ry="0.0400" fill="currentColor"/>
</g>
<g transform="translate(38.4748, 8.0372)">
<path transform="scale(0.0040, -0.0040)" d="M0 -46c0 91 116 182 217 182c63 0 109 -35 109 -90c0 -87 -110 -182 -220 -182c-67 0 -106 39 -106 90z" fill="currentColor"/>
</g>
<g transform="translate(39.7140, 6.0372)">
<rect x="-0.0650" y="-1.8715" width="0.1300" height="3.6853" ry="0.0400" fill="currentColor"/>
</g>
<g transform="translate(81.6326, 6.0372)">
<path stroke-width="0.0800" stroke-linejoin="round" stroke-linecap="round" stroke="currentColor" fill="currentColor" d="M0.8521 -1.2250C1.2488 -1.7155 1.9896 -1.7155 2.3863 -1.2250L2.3863 -1.2250C1.9896 -1.5955 1.2488 -1.5955 0.8521 -1.2250z"/>
</g>
<g transform="translate(40.4090, 8.0372)">
<path transform="scale(0.0040, -0.0040)" d="M0 -46c0 91 116 182 217 182c63 0 109 -35 109 -90c0 -87 -110 -182 -220 -182c-67 0 -106 39 -106 90z" fill="currentColor"/>
</g>
<g transform="translate(41.6482, 6.0372)">
<rect x="-0.0650" y="-1.9310" width="0.1300" height="3.7448" ry="0.0400" fill="currentColor"/>
</g>
<g transform="translate(42.3432, 8.0372)">
<path transform="scale(0.0040, -0.0040)" d="M0 -46c0 91 116 182 217 182c63 0 109 -35 109 -90c0 -87 -110 -182 -220 -182c-67 0 -106 39 -106 90z" fill="currentColor"/>
</g>
<g transform="translate(43.5824, 6.0372)">
<rect x="-0.0650" y="-1.9905" width="0.1300" height="3.8043" ry="0.0400" fill="currentColor"/>
</g>
<g transform="translate(77.7642, 6.0372)">
<path stroke-width="0.0800" stroke-linejoin="round" stroke-linecap="round" stroke="currentColor" fill="currentColor" d="M0.8521 -1.2250C1.2488 -1.7155 1.9896 -1.7155 2.3863 -1.2250L2.3863 -1.2250C1.9896 -1.5955 1.2488 -1.5955 0.8521 -1.2250z"/>
</g>
<g transform="translate(44.2774, 8.0372)">
<path transform="scale(0.0040, -0.0040)" d="M0 -46c0 91 116 182 217 182c63 0 109 -35 109 -90c0 -87 -110 -182 -220 -182c-67 0 -106 39 -106 90z" fill="currentColor"/>
</g>
<g transform="translate(45.5166, 6.0372)">
<rect x="-0.0650" y="-2.0500" width="0.1300" height="3.8638" ry="0.0400" fill="currentColor"/>
</g>
<g transform="translate(46.2116, 7.5372)">
<path transform="scale(0.0040, -0.0040)" d="M0 -46c0 91 116 182 217 182c63 0 109 -35 109 -90c0 -87 -110 -182 -220 -182c-67 0 -106 39 -106 90z" fill="currentColor"/>
</g>
<g transform="translate(47.4508, 6.0372)">
<rect x="-0.0650" y="-2.1095" width="0.1300" height="3.4233" ry="0.0400" fill="currentColor"/>
</g>
<g transform="translate(62.2074, 2.5372)">
<polygon stroke-linejoin="round" stroke-linecap="round" stroke-width="0.0800" fill="currentColor" stroke="currentColor" points="14.6304 -0.2000 14.6304 0.2000 0.0400 0.2000 0.0400 -0.2000"/>
</g>
<g transform="translate(62.2074, 3.3472)">
<polygon stroke-linejoin="round" stroke-linecap="round" stroke-width="0.0800" fill="currentColor" stroke="currentColor" points="14.6304 -0.2000 14.6304 0.2000 0.0400 0.2000 0.0400 -0.2000"/>
</g>
<g transform="translate(67.9852, 4.1572)">
<polygon stroke-linejoin="round" stroke-linecap="round" stroke-width="0.0800" fill="currentColor" stroke="currentColor" points="8.8525 -0.2000 8.8525 0.2000 0.0400 0.2000 0.0400 -0.2000"/>
</g>
<g transform="translate(48.1458, 7.5372)">
<path transform="scale(0.0040, -0.0040)" d="M0 -46c0 91 116 182 217 182c63 0 109 -35 109 -90c0 -87 -110 -182 -220 -182c-67 0 -106 39 -106 90z" fill="currentColor"/>
</g>
<g transform="translate(49.3850, 6.0372)">
<rect x="-0.0650" y="-2.1690" width="0.1300" height="3.4828" ry="0.0400" fill="currentColor"/>
</g>
<g transform="translate(83.1879, 11.6234)">
<text font-family="serif" font-style="italic" font-size="1.7459" text-anchor="start" fill="currentColor">
<tspan>7</tspan>
</text>
</g>
<g transform="translate(50.0800, 7.5372)">
<path transform="scale(0.0040, -0.0040)" d="M0 -46c0 91 116 182 217 182c63 0 109 -35 109 -90c0 -87 -110 -182 -220 -182c-67 0 -106 39 -106 90z" fill="currentColor"/>
</g>
<g transform="translate(51.3192, 6.0372)">
<rect x="-0.0650" y="-2.2285" width="0.1300" height="3.5423" ry="0.0400" fill="currentColor"/>
</g>
<g transform="translate(77.7642, 11.1872)">
<line stroke-linejoin="round" stroke-linecap="round" stroke-width="0.1600" stroke="currentColor" x1="11.9352" y1="-0.2677" x2="11.9352" y2="-0.9677"/>
</g>
<g transform="translate(77.7642, 11.1872)">
<line stroke-linejoin="round" stroke-linecap="round" stroke-width="0.1600" stroke="currentColor" x1="-0.1999" y1="0.0045" x2="-0.1999" y2="-0.6955"/>
</g>
<g transform="translate(77.7642, 11.1872)">
<line stroke-linejoin="round" stroke-linecap="round" stroke-width="0.1600" stroke="currentColor" x1="11.9352" y1="-0.2677" x2="6.9112" y2="-0.1550"/>
</g>
<g transform="translate(77.7642, 11.1872)">
<line stroke-linejoin="round" stroke-linecap="round" stroke-width="0.1600" stroke="currentColor" x1="-0.1999" y1="0.0045" x2="5.0240" y2="-0.1127"/>
</g>
<g transform="translate(52.2707, 7.5372)">
<path transform="scale(0.0040, -0.0040)" d="M0 -46c0 91 116 182 217 182c63 0 109 -35 109 -90c0 -87 -110 -182 -220 -182c-67 0 -106 39 -106 90z" fill="currentColor"/>
</g>
<g transform="translate(53.5099, 6.0372)">
<rect x="-0.0650" y="-2.2959" width="0.1300" height="3.6097" ry="0.0400" fill="currentColor"/>
</g>
<g transform="translate(75.5735, 6.0372)">
<path stroke-width="0.0800" stroke-linejoin="round" stroke-linecap="round" stroke="currentColor" fill="currentColor" d="M1.6392 -1.2250C1.9178 -1.5927 2.3641 -1.5927 2.6427 -1.2250L2.6427 -1.2250C2.3641 -1.4727 1.9178 -1.4727 1.6392 -1.2250z"/>
</g>
<g transform="translate(54.4613, 7.5372)">
<path transform="scale(0.0040, -0.0040)" d="M0 -46c0 91 116 182 217 182c63 0 109 -35 109 -90c0 -87 -110 -182 -220 -182c-67 0 -106 39 -106 90z" fill="currentColor"/>
</g>
<g transform="translate(55.7005, 6.0372)">
<rect x="-0.0650" y="-2.3632" width="0.1300" height="3.6770" ry="0.0400" fill="currentColor"/>
</g>
<g transform="translate(56.6519, 7.0372)">
<path transform="scale(0.0040, -0.0040)" d="M0 -46c0 91 116 182 217 182c63 0 109 -35 109 -90c0 -87 -110 -182 -220 -182c-67 0 -106 39 -106 90z" fill="currentColor"/>
</g>
<g transform="translate(57.8911, 6.0372)">
<rect x="-0.0650" y="-2.4306" width="0.1300" height="3.2444" ry="0.0400" fill="currentColor"/>
</g>
<g transform="translate(73.3829, 6.0372)">
<path stroke-width="0.0800" stroke-linejoin="round" stroke-linecap="round" stroke="currentColor" fill="currentColor" d="M0.8521 1.2250C1.3003 1.7642 2.1945 1.7642 2.6427 1.2250L2.6427 1.2250C2.1945 1.6442 1.3003 1.6442 0.8521 1.2250z"/>
</g>
<g transform="translate(58.8425, 7.0372)">
<path transform="scale(0.0040, -0.0040)" d="M0 -46c0 91 116 182 217 182c63 0 109 -35 109 -90c0 -87 -110 -182 -220 -182c-67 0 -106 39 -106 90z" fill="currentColor"/>
</g>
<g transform="translate(60.0817, 6.0372)">
<rect x="-0.0650" y="-2.4980" width="0.1300" height="3.3118" ry="0.0400" fill="currentColor"/>
</g>
<g transform="translate(61.0332, 7.0372)">
<path transform="scale(0.0040, -0.0040)" d="M0 -46c0 91 116 182 217 182c63 0 109 -35 109 -90c0 -87 -110 -182 -220 -182c-67 0 -106 39 -106 90z" fill="currentColor"/>
</g>
<g transform="translate(62.2724, 6.0372)">
<rect x="-0.0650" y="-3.5000" width="0.1300" height="4.3138" ry="0.0400" fill="currentColor"/>
</g>
<g transform="translate(71.1923, 6.0372)">
<path stroke-width="0.0800" stroke-linejoin="round" stroke-linecap="round" stroke="currentColor" fill="currentColor" d="M0.8521 1.2250C1.3003 1.7642 2.1945 1.7642 2.6427 1.2250L2.6427 1.2250C2.1945 1.6442 1.3003 1.6442 0.8521 1.2250z"/>
</g>
<g transform="translate(63.9221, 6.5372)">
<path transform="scale(0.0040, -0.0040)" d="M0 -46c0 91 116 182 217 182c63 0 109 -35 109 -90c0 -87 -110 -182 -220 -182c-67 0 -106 39 -106 90z" fill="currentColor"/>
</g>
<g transform="translate(65.1613, 6.0372)">
<rect x="-0.0650" y="-3.5000" width="0.1300" height="3.8138" ry="0.0400" fill="currentColor"/>
</g>
<g transform="translate(66.8110, 6.5372)">
<path transform="scale(0.0040, -0.0040)" d="M0 -46c0 91 116 182 217 182c63 0 109 -35 109 -90c0 -87 -110 -182 -220 -182c-67 0 -106 39 -106 90z" fill="currentColor"/>
</g>
<g transform="translate(68.0502, 6.0372)">
<rect x="-0.0650" y="-3.5000" width="0.1300" height="3.8138" ry="0.0400" fill="currentColor"/>
</g>
<g transform="translate(66.8110, 6.0372)">
<path stroke-width="0.0800" stroke-linejoin="round" stroke-linecap="round" stroke="currentColor" fill="currentColor" d="M0.8521 1.2250C1.3003 1.7642 2.1945 1.7642 2.6427 1.2250L2.6427 1.2250C2.1945 1.6442 1.3003 1.6442 0.8521 1.2250z"/>
</g>
<g transform="translate(69.0016, 6.5372)">
<path transform="scale(0.0040, -0.0040)" d="M0 -46c0 91 116 182 217 182c63 0 109 -35 109 -90c0 -87 -110 -182 -220 -182c-67 0 -106 39 -106 90z" fill="currentColor"/>
</g>
<g transform="translate(70.2408, 6.0372)">
<rect x="-0.0650" y="-3.5000" width="0.1300" height="3.8138" ry="0.0400" fill="currentColor"/>
</g>
<g transform="translate(71.1923, 6.0372)">
<path transform="scale(0.0040, -0.0040)" d="M0 -46c0 91 116 182 217 182c63 0 109 -35 109 -90c0 -87 -110 -182 -220 -182c-67 0 -106 39 -106 90z" fill="currentColor"/>
</g>
<g transform="translate(72.4315, 6.0372)">
<rect x="-0.0650" y="-3.5000" width="0.1300" height="3.3138" ry="0.0400" fill="currentColor"/>
</g>
<g transform="translate(71.9876, 1.7650)">
<text font-family="serif" font-style="italic" font-size="1.7459" text-anchor="start" fill="currentColor">
<tspan>5</tspan>
</text>
</g>
<g transform="translate(73.3829, 6.0372)">
<path transform="scale(0.0040, -0.0040)" d="M0 -46c0 91 116 182 217 182c63 0 109 -35 109 -90c0 -87 -110 -182 -220 -182c-67 0 -106 39 -106 90z" fill="currentColor"/>
</g>
<g transform="translate(74.6221, 6.0372)">
<rect x="-0.0650" y="-3.5000" width="0.1300" height="3.3138" ry="0.0400" fill="currentColor"/>
</g>
<g transform="translate(67.9852, 1.1972)">
<line stroke-linejoin="round" stroke-linecap="round" stroke-width="0.1600" stroke="currentColor" x1="9.0925" y1="0.0000" x2="9.0925" y2="0.7000"/>
</g>
<g transform="translate(67.9852, 1.1972)">
<line stroke-linejoin="round" stroke-linecap="round" stroke-width="0.1600" stroke="currentColor" x1="-0.2000" y1="-0.0000" x2="-0.2000" y2="0.7000"/>
</g>
<g transform="translate(67.9852, 1.1972)">
<line stroke-linejoin="round" stroke-linecap="round" stroke-width="0.1600" stroke="currentColor" x1="9.0925" y1="0.0000" x2="5.4901" y2="0.0000"/>
</g>
<g transform="translate(67.9852, 1.1972)">
<line stroke-linejoin="round" stroke-linecap="round" stroke-width="0.1600" stroke="currentColor" x1="-0.2000" y1="-0.0000" x2="3.6024" y2="0.0000"/>
</g>
<g transform="translate(75.5735, 6.0372)">
<path transform="scale(0.0040, -0.0040)" d="M0 -46c0 91 116 182 217 182c63 0 109 -35 109 -90c0 -87 -110 -182 -220 -182c-67 0 -106 39 -106 90z" fill="currentColor"/>
</g>
<g transform="translate(76.8127, 6.0372)">
<rect x="-0.0650" y="-3.5000" width="0.1300" height="3.3138" ry="0.0400" fill="currentColor"/>
</g>
<g transform="translate(63.9221, 6.0372)">
<path stroke-width="0.0800" stroke-linejoin="round" stroke-linecap="round" stroke="currentColor" fill="currentColor" d="M0.8521 1.2250C1.4250 1.8680 2.7681 1.8680 3.3410 1.2250L3.3410 1.2250C2.7681 1.7480 1.4250 1.7480 0.8521 1.2250z"/>
</g>
<g transform="translate(77.7642, 6.0372)">
<path transform="scale(0.0040, -0.0040)" d="M0 -46c0 91 116 182 217 182c63 0 109 -35 109 -90c0 -87 -110 -182 -220 -182c-67 0 -106 39 -106 90z" fill="currentColor"/>
</g>
<g transform="translate(77.8292, 6.0372)">
<rect x="-0.0650" y="0.1862" width="0.1300" height="3.6223" ry="0.0400" fill="currentColor"/>
</g>
<g transform="translate(79.6984, 6.0372)">
<path transform="scale(0.0040, -0.0040)" d="M0 -46c0 91 116 182 217 182c63 0 109 -35 109 -90c0 -87 -110 -182 -220 -182c-67 0 -106 39 -106 90z" fill="currentColor"/>
</g>
<g transform="translate(79.7634, 6.0372)">
<rect x="-0.0650" y="0.1862" width="0.1300" height="3.5785" ry="0.0400" fill="currentColor"/>
</g>
<g transform="translate(37.7148, 4.2272)">
<polygon stroke-linejoin="round" stroke-linecap="round" stroke-width="0.0800" fill="currentColor" stroke="currentColor" points="22.3919 -0.8900 22.3919 -0.4900 0.0400 0.2000 0.0400 -0.2000"/>
</g>
<g transform="translate(37.7148, 5.0372)">
<polygon stroke-linejoin="round" stroke-linecap="round" stroke-width="0.0800" fill="currentColor" stroke="currentColor" points="22.3919 -0.8900 22.3919 -0.4900 0.0400 0.2000 0.0400 -0.2000"/>
</g>
<g transform="translate(37.7148, 5.8472)">
<polygon stroke-linejoin="round" stroke-linecap="round" stroke-width="0.0800" fill="currentColor" stroke="currentColor" points="22.3919 -0.8900 22.3919 -0.4900 0.0400 0.2000 0.0400 -0.2000"/>
</g>
<g transform="translate(81.6326, 5.5372)">
<path transform="scale(0.0040, -0.0040)" d="M0 -46c0 91 116 182 217 182c63 0 109 -35 109 -90c0 -87 -110 -182 -220 -182c-67 0 -106 39 -106 90z" fill="currentColor"/>
</g>
<g transform="translate(81.6976, 6.0372)">
<rect x="-0.0650" y="-0.3138" width="0.1300" height="4.0346" ry="0.0400" fill="currentColor"/>
</g>
<g transform="translate(58.8425, 6.0372)">
<path stroke-width="0.0800" stroke-linejoin="round" stroke-linecap="round" stroke="currentColor" fill="currentColor" d="M0.8521 2.0000C1.3003 2.5392 2.1945 2.5392 2.6427 2.0000L2.6427 2.0000C2.1945 2.4192 1.3003 2.4192 0.8521 2.0000z"/>
</g>
<g transform="translate(83.5668, 5.5372)">
<path transform="scale(0.0040, -0.0040)" d="M0 -46c0 91 116 182 217 182c63 0 109 -35 109 -90c0 -87 -110 -182 -220 -182c-67 0 -106 39 -106 90z" fill="currentColor"/>
</g>
<g transform="translate(83.6318, 6.0372)">
<rect x="-0.0650" y="-0.3138" width="0.1300" height="3.9907" ry="0.0400" fill="currentColor"/>
</g>
<g transform="translate(85.5010, 5.5372)">
<path transform="scale(0.0040, -0.0040)" d="M0 -46c0 91 116 182 217 182c63 0 109 -35 109 -90c0 -87 -110 -182 -220 -182c-67 0 -106 39 -106 90z" fill="currentColor"/>
</g>
<g transform="translate(85.5660, 6.0372)">
<rect x="-0.0650" y="-0.3138" width="0.1300" height="3.9469" ry="0.0400" fill="currentColor"/>
</g>
<g transform="translate(56.6519, 6.0372)">
<path stroke-width="0.0800" stroke-linejoin="round" stroke-linecap="round" stroke="currentColor" fill="currentColor" d="M0.8521 2.0000C1.3003 2.5392 2.1945 2.5392 2.6427 2.0000L2.6427 2.0000C2.1945 2.4192 1.3003 2.4192 0.8521 2.0000z"/>
</g>
<g transform="translate(87.4352, 5.5372)">
<path transform="scale(0.0040, -0.0040)" d="M0 -46c0 91 116 182 217 182c63 0 109 -35 109 -90c0 -87 -110 -182 -220 -182c-67 0 -106 39 -106 90z" fill="currentColor"/>
</g>
<g transform="translate(87.5002, 6.0372)">
<rect x="-0.0650" y="-0.3138" width="0.1300" height="3.9030" ry="0.0400" fill="currentColor"/>
</g>
<g transform="translate(89.3694, 5.5372)">
<path transform="scale(0.0040, -0.0040)" d="M0 -46c0 91 116 182 217 182c63 0 109 -35 109 -90c0 -87 -110 -182 -220 -182c-67 0 -106 39 -106 90z" fill="currentColor"/>
</g>
<g transform="translate(89.4344, 6.0372)">
<rect x="-0.0650" y="-0.3138" width="0.1300" height="3.8591" ry="0.0400" fill="currentColor"/>
</g>
<g transform="translate(52.2707, 6.0372)">
<path stroke-width="0.0800" stroke-linejoin="round" stroke-linecap="round" stroke="currentColor" fill="currentColor" d="M0.8521 2.5000C1.3003 3.0392 2.1945 3.0392 2.6427 2.5000L2.6427 2.5000C2.1945 2.9192 1.3003 2.9192 0.8521 2.5000z"/>
</g>
<g transform="translate(91.3036, 5.5372)">
<path transform="scale(0.0040, -0.0040)" d="M0 -46c0 91 116 182 217 182c63 0 109 -35 109 -90c0 -87 -110 -182 -220 -182c-67 0 -106 39 -106 90z" fill="currentColor"/>
</g>
<g transform="translate(91.3686, 6.0372)">
<rect x="-0.0650" y="-0.3138" width="0.1300" height="3.8153" ry="0.0400" fill="currentColor"/>
</g>
<g transform="translate(93.4942, 6.0372)">
<path transform="scale(0.0040, -0.0040)" d="M154 455c79 0 46 -98 91 -98c15 0 46 49 52 63c3 6 8 9 14 9s12 -3 14 -9l-216 -920c-8 -7 -18 -10 -28 -10s-19 3 -27 10l86 327c-35 -13 -71 -23 -108 -23c-58 0 -86 41 -86 80c0 36 24 71 71 71c79 0 46 -98 91 -98c17 0 54 54 59 71l39 149c-34 -12 -70 -23 -106 -23
c-58 0 -85 41 -85 80c0 36 24 71 71 71c79 0 45 -98 90 -98c16 0 52 51 56 68l40 151c-33 -12 -68 -22 -103 -22c-58 0 -86 41 -86 80c0 36 24 71 71 71z" fill="currentColor"/>
</g>
<g transform="translate(50.0800, 6.0372)">
<path stroke-width="0.0800" stroke-linejoin="round" stroke-linecap="round" stroke="currentColor" fill="currentColor" d="M0.8521 2.5000C1.3003 3.0392 2.1945 3.0392 2.6427 2.5000L2.6427 2.5000C2.1945 2.9192 1.3003 2.9192 0.8521 2.5000z"/>
</g>
<g transform="translate(95.6806, 6.0372)">
<path transform="scale(0.0040, -0.0040)" d="M154 455c79 0 46 -98 91 -98c15 0 46 49 52 63c3 6 8 9 14 9s12 -3 14 -9l-216 -920c-8 -7 -18 -10 -28 -10s-19 3 -27 10l86 327c-35 -13 -71 -23 -108 -23c-58 0 -86 41 -86 80c0 36 24 71 71 71c79 0 46 -98 91 -98c17 0 54 54 59 71l39 149c-34 -12 -70 -23 -106 -23
c-58 0 -85 41 -85 80c0 36 24 71 71 71c79 0 45 -98 90 -98c16 0 52 51 56 68l40 151c-33 -12 -68 -22 -103 -22c-58 0 -86 41 -86 80c0 36 24 71 71 71z" fill="currentColor"/>
</g>
<g transform="translate(97.8671, 6.0372)">
<path transform="scale(0.0040, -0.0040)" d="M154 455c79 0 46 -98 91 -98c15 0 46 49 52 63c3 6 8 9 14 9s12 -3 14 -9l-216 -920c-8 -7 -18 -10 -28 -10s-19 3 -27 10l86 327c-35 -13 -71 -23 -108 -23c-58 0 -86 41 -86 80c0 36 24 71 71 71c79 0 46 -98 91 -98c17 0 54 54 59 71l39 149c-34 -12 -70 -23 -106 -23
c-58 0 -85 41 -85 80c0 36 24 71 71 71c79 0 45 -98 90 -98c16 0 52 51 56 68l40 151c-33 -12 -68 -22 -103 -22c-58 0 -86 41 -86 80c0 36 24 71 71 71z" fill="currentColor"/>
</g>
<g transform="translate(55.2566, 2.8998)">
<text font-family="serif" font-style="italic" font-size="1.7459" text-anchor="start" fill="currentColor">
<tspan>5</tspan>
</text>
</g>
<g transform="translate(100.0535, 6.0372)">
<path transform="scale(0.0040, -0.0040)" d="M154 455c79 0 46 -98 91 -98c15 0 46 49 52 63c3 6 8 9 14 9s12 -3 14 -9l-216 -920c-8 -7 -18 -10 -28 -10s-19 3 -27 10l86 327c-35 -13 -71 -23 -108 -23c-58 0 -86 41 -86 80c0 36 24 71 71 71c79 0 46 -98 91 -98c17 0 54 54 59 71l39 149c-34 -12 -70 -23 -106 -23
c-58 0 -85 41 -85 80c0 36 24 71 71 71c79 0 45 -98 90 -98c16 0 52 51 56 68l40 151c-33 -12 -68 -22 -103 -22c-58 0 -86 41 -86 80c0 36 24 71 71 71z" fill="currentColor"/>
</g>
<g transform="translate(51.2542, 2.4668)">
<line stroke-linejoin="round" stroke-linecap="round" stroke-width="0.1600" stroke="currentColor" x1="9.0924" y1="-0.2756" x2="9.0924" y2="0.4244"/>
</g>
<g transform="translate(51.2542, 2.4668)">
<line stroke-linejoin="round" stroke-linecap="round" stroke-width="0.1600" stroke="currentColor" x1="-0.1999" y1="0.0061" x2="-0.1999" y2="0.7061"/>
</g>
<g transform="translate(51.2542, 2.4668)">
<line stroke-linejoin="round" stroke-linecap="round" stroke-width="0.1600" stroke="currentColor" x1="9.0924" y1="-0.2756" x2="5.4896" y2="-0.1664"/>
</g>
<g transform="translate(51.2542, 2.4668)">
<line stroke-linejoin="round" stroke-linecap="round" stroke-width="0.1600" stroke="currentColor" x1="-0.1999" y1="0.0061" x2="3.6028" y2="-0.1092"/>
</g>
<g transform="translate(16.6730, 6.0372)">
<path stroke-width="0.0800" stroke-linejoin="round" stroke-linecap="round" stroke="currentColor" fill="currentColor" d="M0.8521 3.7500C1.4250 4.3930 2.7681 4.3930 3.3410 3.7500L3.3410 3.7500C2.7681 4.2730 1.4250 4.2730 0.8521 3.7500z"/>
</g>
<g transform="translate(19.5619, 6.0372)">
<path stroke-width="0.0800" stroke-linejoin="round" stroke-linecap="round" stroke="currentColor" fill="currentColor" d="M0.8521 3.7500C1.3326 4.3180 2.3323 4.3180 2.8128 3.7500L2.8128 3.7500C2.3323 4.1980 1.3326 4.1980 0.8521 3.7500z"/>
</g>
<g transform="translate(23.7550, 6.0372)">
<path stroke-width="0.0800" stroke-linejoin="round" stroke-linecap="round" stroke="currentColor" fill="currentColor" d="M0.8521 3.5000C1.2275 3.9694 1.9092 3.9694 2.2845 3.5000L2.2845 3.5000C1.9092 3.8494 1.2275 3.8494 0.8521 3.5000z"/>
</g>
<g transform="translate(26.7617, 2.6007)">
<line stroke-linejoin="round" stroke-linecap="round" stroke-width="0.1600" stroke="currentColor" x1="9.0925" y1="-0.0956" x2="9.0925" y2="0.6044"/>
</g>
<g transform="translate(26.7617, 2.6007)">
<line stroke-linejoin="round" stroke-linecap="round" stroke-width="0.1600" stroke="currentColor" x1="-0.2000" y1="0.0021" x2="-0.2000" y2="0.7021"/>
</g>
<g transform="translate(26.7617, 2.6007)">
<line stroke-linejoin="round" stroke-linecap="round" stroke-width="0.1600" stroke="currentColor" x1="9.0925" y1="-0.0956" x2="5.4901" y2="-0.0577"/>
</g>
<g transform="translate(26.7617, 2.6007)">
<line stroke-linejoin="round" stroke-linecap="round" stroke-width="0.1600" stroke="currentColor" x1="-0.2000" y1="0.0021" x2="3.6024" y2="-0.0379"/>
</g>
<g transform="translate(30.7641, 3.1218)">
<text font-family="serif" font-style="italic" font-size="1.7459" text-anchor="start" fill="currentColor">
<tspan>5</tspan>
</text>
</g>
<g transform="translate(25.5875, 6.0372)">
<path stroke-width="0.0800" stroke-linejoin="round" stroke-linecap="round" stroke="currentColor" fill="currentColor" d="M0.8521 3.5000C1.3003 4.0392 2.1945 4.0392 2.6427 3.5000L2.6427 3.5000C2.1945 3.9192 1.3003 3.9192 0.8521 3.5000z"/>
</g>
<g transform="translate(27.7781, 6.0372)">
<path stroke-width="0.0800" stroke-linejoin="round" stroke-linecap="round" stroke="currentColor" fill="currentColor" d="M0.8521 3.5000C1.3003 4.0392 2.1945 4.0392 2.6427 3.5000L2.6427 3.5000C2.1945 3.9192 1.3003 3.9192 0.8521 3.5000z"/>
</g>
<g transform="translate(29.9687, 6.0372)">
<path stroke-width="0.0800" stroke-linejoin="round" stroke-linecap="round" stroke="currentColor" fill="currentColor" d="M0.8521 3.5000C1.3003 4.0392 2.1945 4.0392 2.6427 3.5000L2.6427 3.5000C2.1945 3.9192 1.3003 3.9192 0.8521 3.5000z"/>
</g>
<g transform="translate(34.3500, 6.0372)">
<path stroke-width="0.0800" stroke-linejoin="round" stroke-linecap="round" stroke="currentColor" fill="currentColor" d="M0.8521 2.7500C1.3003 3.2892 2.1945 3.2892 2.6427 2.7500L2.6427 2.7500C2.1945 3.1692 1.3003 3.1692 0.8521 2.7500z"/>
</g>
<g transform="translate(37.7148, 2.8832)">
<line stroke-linejoin="round" stroke-linecap="round" stroke-width="0.1600" stroke="currentColor" x1="11.9351" y1="-0.3631" x2="11.9351" y2="0.3369"/>
</g>
<g transform="translate(37.7148, 2.8832)">
<line stroke-linejoin="round" stroke-linecap="round" stroke-width="0.1600" stroke="currentColor" x1="-0.1999" y1="0.0061" x2="-0.1999" y2="0.7061"/>
</g>
<g transform="translate(37.7148, 2.8832)">
<line stroke-linejoin="round" stroke-linecap="round" stroke-width="0.1600" stroke="currentColor" x1="11.9351" y1="-0.3631" x2="6.9110" y2="-0.2102"/>
</g>
<g transform="translate(37.7148, 2.8832)">
<line stroke-linejoin="round" stroke-linecap="round" stroke-width="0.1600" stroke="currentColor" x1="-0.1999" y1="0.0061" x2="5.0241" y2="-0.1528"/>
</g>
<g transform="translate(43.1386, 3.2726)">
<text font-family="serif" font-style="italic" font-size="1.7459" text-anchor="start" fill="currentColor">
<tspan>7</tspan>
</text>
</g>
<g transform="translate(17.8472, 4.0372)">
<polygon stroke-linejoin="round" stroke-linecap="round" stroke-width="0.0800" fill="currentColor" stroke="currentColor" points="17.7670 -0.3900 17.7670 0.0100 0.0400 0.2000 0.0400 -0.2000"/>
</g>
<g transform="translate(17.8472, 4.9105)">
<polygon stroke-linejoin="round" stroke-linecap="round" stroke-width="0.0800" fill="currentColor" stroke="currentColor" points="17.7670 -0.3900 17.7670 0.0100 0.0400 0.2000 0.0400 -0.2000"/>
</g>
<g transform="translate(20.7361, 5.7531)">
<polygon stroke-linejoin="round" stroke-linecap="round" stroke-width="0.0800" fill="currentColor" stroke="currentColor" points="14.8781 -0.3592 14.8781 0.0408 0.0400 0.2000 0.0400 -0.2000"/>
</g>
<g transform="translate(23.0968, 6.6012)">
<polygon stroke-linejoin="round" stroke-linecap="round" stroke-width="0.0800" fill="currentColor" stroke="currentColor" points="1.9224 -0.2209 1.9224 0.1791 0.0400 0.2000 0.0400 -0.2000"/>
</g>
<g transform="translate(36.5406, 6.0372)">
<path stroke-width="0.0800" stroke-linejoin="round" stroke-linecap="round" stroke="currentColor" fill="currentColor" d="M0.8521 2.7500C1.2488 3.2405 1.9896 3.2405 2.3863 2.7500L2.3863 2.7500C1.9896 3.1205 1.2488 3.1205 0.8521 2.7500z"/>
</g>
<g transform="translate(38.4748, 6.0372)">
<path stroke-width="0.0800" stroke-linejoin="round" stroke-linecap="round" stroke="currentColor" fill="currentColor" d="M0.8521 2.7500C1.2488 3.2405 1.9896 3.2405 2.3863 2.7500L2.3863 2.7500C1.9896 3.1205 1.2488 3.1205 0.8521 2.7500z"/>
</g>
<g transform="translate(40.4090, 6.0372)">
<path stroke-width="0.0800" stroke-linejoin="round" stroke-linecap="round" stroke="currentColor" fill="currentColor" d="M0.8521 2.7500C1.2488 3.2405 1.9896 3.2405 2.3863 2.7500L2.3863 2.7500C1.9896 3.1205 1.2488 3.1205 0.8521 2.7500z"/>
</g>
<g transform="translate(42.3432, 6.0372)">
<path stroke-width="0.0800" stroke-linejoin="round" stroke-linecap="round" stroke="currentColor" fill="currentColor" d="M0.8521 2.7500C1.2488 3.2405 1.9896 3.2405 2.3863 2.7500L2.3863 2.7500C1.9896 3.1205 1.2488 3.1205 0.8521 2.7500z"/>
</g>
<g transform="translate(46.2116, 6.0372)">
<path stroke-width="0.0800" stroke-linejoin="round" stroke-linecap="round" stroke="currentColor" fill="currentColor" d="M0.8521 2.5000C1.2488 2.9905 1.9896 2.9905 2.3863 2.5000L2.3863 2.5000C1.9896 2.8705 1.2488 2.8705 0.8521 2.5000z"/>
</g>
<g transform="translate(48.1458, 6.0372)">
<path stroke-width="0.0800" stroke-linejoin="round" stroke-linecap="round" stroke="currentColor" fill="currentColor" d="M0.8521 2.5000C1.2488 2.9905 1.9896 2.9905 2.3863 2.5000L2.3863 2.5000C1.9896 2.8705 1.2488 2.8705 0.8521 2.5000z"/>
</g>
</svg>
