<svg xmlns="http://www.w3.org/2000/svg" xmlns:xlink="http://www.w3.org/1999/xlink" version="1.2" width="210.00mm" height="297.00mm" viewBox="0.0000 -0.0000 119.5016 169.0094">
<style type="text/css">
<![CDATA[
tspan { white-space: pre; }
]]>
</style>
<g transform="translate(8.5358, 15.7278)">
<rect x="16.7714" y="-0.1000" width="1.9563" height="0.2000" ry="0.1000" fill="currentColor"/>
</g>
<g transform="translate(17.0717, 14.7278)">
<line stroke-linejoin="round" stroke-linecap="round" stroke-width="0.1000" stroke="currentColor" x1="0.0500" y1="0" x2="93.8441" y2="0"/>
</g>
<g transform="translate(17.0717, 13.7278)">
<line stroke-linejoin="round" stroke-linecap="round" stroke-width="0.1000" stroke="currentColor" x1="0.0500" y1="0" x2="93.8441" y2="0"/>
</g>
<g transform="translate(17.0717, 12.7278)">
<line stroke-linejoin="round" stroke-linecap="round" stroke-width="0.1000" stroke="currentColor" x1="0.0500" y1="0" x2="93.8441" y2="0"/>
</g>
<g transform="translate(17.0717, 11.7278)">
<line stroke-linejoin="round" stroke-linecap="round" stroke-width="0.1000" stroke="currentColor" x1="0.0500" y1="0" x2="93.8441" y2="0"/>
</g>
<g transform="translate(17.0717, 10.7278)">
<line stroke-linejoin="round" stroke-linecap="round" stroke-width="0.1000" stroke="currentColor" x1="0.0500" y1="0" x2="93.8441" y2="0"/>
</g>
<g transform="translate(110.7757, 12.7278)">
<rect x="0.0000" y="-2.0000" width="0.1900" height="4.0000" ry="0.0000" fill="currentColor"/>
</g>
<g transform="translate(90.7688, 14.7100)">
<polygon stroke-linejoin="round" stroke-linecap="round" stroke-width="0.0800" fill="currentColor" stroke="currentColor" points="3.8185 -0.3022 3.8185 0.0978 0.0400 0.2000 0.0400 -0.2000"/>
</g>
<g transform="translate(90.7688, 15.5200)">
<polygon stroke-linejoin="round" stroke-linecap="round" stroke-width="0.0800" fill="currentColor" stroke="currentColor" points="3.8185 -0.3022 3.8185 0.0978 0.0400 0.2000 0.0400 -0.2000"/>
</g>
<g transform="translate(82.9220, 15.7278)">
<polygon stroke-linejoin="round" stroke-linecap="round" stroke-width="0.0800" fill="currentColor" stroke="currentColor" points="1.1250 -0.2309 1.1250 0.1691 0.0400 0.2000 0.0400 -0.2000"/>
</g>
<g transform="translate(82.9220, 16.5378)">
<polygon stroke-linejoin="round" stroke-linecap="round" stroke-width="0.0800" fill="currentColor" stroke="currentColor" points="11.6654 -0.5100 11.6654 -0.1100 0.0400 0.2000 0.0400 -0.2000"/>
</g>
<g transform="translate(25.6333, 15.7278)">
<path transform="scale(0.0040, -0.0040)" d="M0 -46c0 91 116 182 217 182c63 0 109 -35 109 -90c0 -87 -110 -182 -220 -182c-67 0 -106 39 -106 90z" fill="currentColor"/>
</g>
<g transform="translate(17.8717, 13.7278)">
<path transform="scale(0.0040, -0.0040)" d="M266 -635h-6c-108 0 -195 88 -195 197c0 58 53 103 112 103c54 0 95 -47 95 -103c0 -52 -43 -95 -95 -95c-11 0 -21 2 -31 6c26 -39 68 -65 117 -65h4zM401 151c19 -89 48 -242 60 -354c76 27 112 94 112 163c0 89 -60 179 -172 191zM74 28c0 -112 98 -247 278 -247
c21 0 44 2 68 6c-7 64 -29 203 -63 364c-79 -8 -124 -61 -124 -119c0 -44 25 -91 81 -123c5 -5 7 -10 7 -15c0 -11 -10 -22 -22 -22c-15 0 -126 62 -126 187c0 88 58 174 160 197c-14 58 -29 117 -46 175c-107 -121 -213 -243 -213 -403zM357 1194c28 0 143 -206 143 -361
c0 -143 -86 -255 -180 -364c21 -68 39 -138 56 -207c5 0 10 1 14 1c155 0 255 -129 255 -262c0 -113 -74 -212 -180 -245c3 -35 5 -70 5 -105c0 -19 -1 -39 -2 -58c-7 -119 -88 -225 -202 -228l1 43c93 2 153 92 159 191c1 18 2 37 2 55c0 31 -1 61 -4 92
c-28 -5 -55 -8 -80 -8c-239 0 -342 217 -342 374c0 177 131 306 248 441c-29 96 -52 170 -52 346c0 189 144 295 159 295zM247 782c0 -55 12 -115 35 -190c83 100 147 202 147 326c0 40 -6 82 -21 127c-49 -24 -161 -97 -161 -263z" fill="currentColor"/>
</g>
<g transform="translate(21.9567, 12.7278)">
<path transform="scale(0.0040, -0.0040)" d="M433 -89c0 -22 -50 -174 -183 -174c-59 0 -250 19 -250 263c0 62 18 262 250 262c116 0 176 -106 176 -163c0 -40 -30 -72 -67 -72c-31 0 -75 25 -75 75c0 38 27 77 72 77c4 0 9 0 14 -1c-28 37 -72 59 -120 59c-106 0 -113 -73 -113 -186v-51v-51
c0 -113 7 -187 113 -187c80 0 139 70 158 151c2 7 7 10 12 10c6 0 13 -4 13 -12z" fill="currentColor"/>
</g>
<g transform="translate(21.9567, 9.3632)">
<rect x="1.0449" y="-2.6727" width="0.1158" height="2.5129" ry="0.0193" fill="currentColor"/>
</g>
<g transform="translate(21.9567, 9.3632)">
<path transform="scale(0.0036, -0.0036)" d="M0 -45c0 92 113 182 214 182c64 0 112 -36 112 -92c0 -88 -108 -182 -217 -182c-68 0 -109 39 -109 92z" fill="currentColor"/>
</g>
<g transform="translate(23.1173, 9.8520)">
<text font-family="serif" font-size="2.2000" text-anchor="start" fill="currentColor">
<tspan> = 54</tspan>
</text>
</g>
<g transform="translate(27.3875, 15.2278)">
<path transform="scale(0.0040, -0.0040)" d="M0 0c0 31 25 56 56 56s56 -25 56 -56s-25 -56 -56 -56s-56 25 -56 56z" fill="currentColor"/>
</g>
<g transform="translate(28.2875, 15.2278)">
<path transform="scale(0.0040, -0.0040)" d="M0 0c0 31 25 56 56 56s56 -25 56 -56s-25 -56 -56 -56s-56 25 -56 56z" fill="currentColor"/>
</g>
<g transform="translate(26.8725, 12.7278)">
<rect x="-0.0650" y="-2.0009" width="0.1300" height="4.8147" ry="0.0400" fill="currentColor"/>
</g>
<g transform="translate(101.2153, 18.1373)">
<text font-family="serif" font-style="italic" font-size="1.7459" text-anchor="start" fill="currentColor">
<tspan>5</tspan>
</text>
</g>
<g transform="translate(31.3728, 15.2278)">
<path transform="scale(0.0040, -0.0040)" d="M0 -46c0 91 116 182 217 182c63 0 109 -35 109 -90c0 -87 -110 -182 -220 -182c-67 0 -106 39 -106 90z" fill="currentColor"/>
</g>
<g transform="translate(32.6120, 12.7278)">
<rect x="-0.0650" y="-2.0792" width="0.1300" height="4.3930" ry="0.0400" fill="currentColor"/>
</g>
<g transform="translate(94.4974, 17.5695)">
<line stroke-linejoin="round" stroke-linecap="round" stroke-width="0.1600" stroke="currentColor" x1="14.5235" y1="-0.0000" x2="14.5235" y2="-0.7000"/>
</g>
<g transform="translate(94.4974, 17.5695)">
<line stroke-linejoin="round" stroke-linecap="round" stroke-width="0.1600" stroke="currentColor" x1="-0.2000" y1="-0.0000" x2="-0.2000" y2="-0.7000"/>
</g>
<g transform="translate(94.4974, 17.5695)">
<line stroke-linejoin="round" stroke-linecap="round" stroke-width="0.1600" stroke="currentColor" x1="14.5235" y1="-0.0000" x2="8.2056" y2="-0.0000"/>
</g>
<g transform="translate(94.4974, 17.5695)">
<line stroke-linejoin="round" stroke-linecap="round" stroke-width="0.1600" stroke="currentColor" x1="-0.2000" y1="-0.0000" x2="6.3179" y2="-0.0000"/>
</g>
<g transform="translate(33.8419, 15.2278)">
<path transform="scale(0.0040, -0.0040)" d="M0 -46c0 91 116 182 217 182c63 0 109 -35 109 -90c0 -87 -110 -182 -220 -182c-67 0 -106 39 -106 90z" fill="currentColor"/>
</g>
<g transform="translate(35.0811, 12.7278)">
<rect x="-0.0650" y="-2.1129" width="0.1300" height="4.4267" ry="0.0400" fill="currentColor"/>
</g>
<g transform="translate(91.8038, 12.7278)">
<path stroke-width="0.0800" stroke-linejoin="round" stroke-linecap="round" stroke="currentColor" fill="currentColor" d="M0.8521 -1.2250C1.3922 -1.8426 2.6056 -1.8426 3.1456 -1.2250L3.1456 -1.2250C2.6056 -1.7226 1.3922 -1.7226 0.8521 -1.2250z"/>
</g>
<g transform="translate(39.4308, 14.7278)">
<path transform="scale(0.0040, -0.0040)" d="M0 -46c0 91 116 182 217 182c63 0 109 -35 109 -90c0 -87 -110 -182 -220 -182c-67 0 -106 39 -106 90z" fill="currentColor"/>
</g>
<g transform="translate(40.6700, 12.7278)">
<rect x="-0.0650" y="-2.1891" width="0.1300" height="4.0029" ry="0.0400" fill="currentColor"/>
</g>
<g transform="translate(42.6898, 14.7278)">
<path transform="scale(0.0040, -0.0040)" d="M0 -46c0 91 116 182 217 182c63 0 109 -35 109 -90c0 -87 -110 -182 -220 -182c-67 0 -106 39 -106 90z" fill="currentColor"/>
</g>
<g transform="translate(43.9290, 12.7278)">
<rect x="-0.0650" y="-2.1924" width="0.1300" height="4.0062" ry="0.0400" fill="currentColor"/>
</g>
<g transform="translate(86.7804, 12.7278)">
<path stroke-width="0.0800" stroke-linejoin="round" stroke-linecap="round" stroke="currentColor" fill="currentColor" d="M0.8521 -1.2118C1.7064 -2.0222 4.6212 -2.0222 5.4755 -1.2118L5.4755 -1.2118C4.6212 -1.9022 1.7064 -1.9022 0.8521 -1.2118z"/>
</g>
<g transform="translate(47.7132, 14.7278)">
<path transform="scale(0.0040, -0.0040)" d="M0 -46c0 91 116 182 217 182c63 0 109 -35 109 -90c0 -87 -110 -182 -220 -182c-67 0 -106 39 -106 90z" fill="currentColor"/>
</g>
<g transform="translate(48.9524, 12.7278)">
<rect x="-0.0650" y="-2.3777" width="0.1300" height="4.1915" ry="0.0400" fill="currentColor"/>
</g>
<g transform="translate(50.4068, 14.2278)">
<path transform="scale(0.0040, -0.0040)" d="M0 -46c0 91 116 182 217 182c63 0 109 -35 109 -90c0 -87 -110 -182 -220 -182c-67 0 -106 39 -106 90z" fill="currentColor"/>
</g>
<g transform="translate(51.6460, 12.7278)">
<rect x="-0.0650" y="-2.4770" width="0.1300" height="3.7908" ry="0.0400" fill="currentColor"/>
</g>
<g transform="translate(64.9688, 9.7278)">
<polygon stroke-linejoin="round" stroke-linecap="round" stroke-width="0.0800" fill="currentColor" stroke="currentColor" points="14.1119 -0.7000 14.1119 -0.3000 0.0400 0.2000 0.0400 -0.2000"/>
</g>
<g transform="translate(64.9688, 10.5378)">
<polygon stroke-linejoin="round" stroke-linecap="round" stroke-width="0.0800" fill="currentColor" stroke="currentColor" points="14.1119 -0.7000 14.1119 -0.3000 0.0400 0.2000 0.0400 -0.2000"/>
</g>
<g transform="translate(54.2652, 14.2278)">
<path transform="scale(0.0040, -0.0040)" d="M0 -46c0 91 116 182 217 182c63 0 109 -35 109 -90c0 -87 -110 -182 -220 -182c-67 0 -106 39 -106 90z" fill="currentColor"/>
</g>
<g transform="translate(56.0194, 14.2278)">
<path transform="scale(0.0040, -0.0040)" d="M0 0c0 31 25 56 56 56s56 -25 56 -56s-25 -56 -56 -56s-56 25 -56 56z" fill="currentColor"/>
</g>
<g transform="translate(55.5044, 12.7278)">
<rect x="-0.0650" y="-2.6193" width="0.1300" height="3.9331" ry="0.0400" fill="currentColor"/>
</g>
<g transform="translate(86.9840, 18.3279)">
<text font-family="serif" font-style="italic" font-size="1.7459" text-anchor="start" fill="currentColor">
<tspan>7</tspan>
</text>
</g>
<g transform="translate(59.3707, 13.7278)">
<path transform="scale(0.0040, -0.0040)" d="M0 -46c0 91 116 182 217 182c63 0 109 -35 109 -90c0 -87 -110 -182 -220 -182c-67 0 -106 39 -106 90z" fill="currentColor"/>
</g>
<g transform="translate(60.6099, 12.7278)">
<rect x="-0.0650" y="-2.8076" width="0.1300" height="3.6214" ry="0.0400" fill="currentColor"/>
</g>
<g transform="translate(82.9220, 17.8777)">
<line stroke-linejoin="round" stroke-linecap="round" stroke-width="0.1600" stroke="currentColor" x1="9.2118" y1="-0.2404" x2="9.2118" y2="-0.9404"/>
</g>
<g transform="translate(82.9220, 17.8777)">
<line stroke-linejoin="round" stroke-linecap="round" stroke-width="0.1600" stroke="currentColor" x1="-0.1999" y1="0.0052" x2="-0.1999" y2="-0.6948"/>
</g>
<g transform="translate(82.9220, 17.8777)">
<line stroke-linejoin="round" stroke-linecap="round" stroke-width="0.1600" stroke="currentColor" x1="9.2118" y1="-0.2404" x2="5.5494" y2="-0.1448"/>
</g>
<g transform="translate(82.9220, 17.8777)">
<line stroke-linejoin="round" stroke-linecap="round" stroke-width="0.1600" stroke="currentColor" x1="-0.1999" y1="0.0052" x2="3.6624" y2="-0.0956"/>
</g>
<g transform="translate(63.7946, 13.7278)">
<path transform="scale(0.0040, -0.0040)" d="M0 -46c0 91 116 182 217 182c63 0 109 -35 109 -90c0 -87 -110 -182 -220 -182c-67 0 -106 39 -106 90z" fill="currentColor"/>
</g>
<g transform="translate(65.0338, 12.7278)">
<rect x="-0.0650" y="-3.0023" width="0.1300" height="3.8161" ry="0.0400" fill="currentColor"/>
</g>
<g transform="translate(77.8165, 12.7278)">
<path stroke-width="0.0800" stroke-linejoin="round" stroke-linecap="round" stroke="currentColor" fill="currentColor" d="M1.5042 0.2250C2.1943 0.9479 4.0803 0.9479 4.7704 0.2250L4.7704 0.2250C4.0803 0.8279 2.1943 0.8279 1.5042 0.2250z"/>
</g>
<g transform="translate(68.5936, 13.2278)">
<path transform="scale(0.0040, -0.0040)" d="M0 -46c0 91 116 182 217 182c63 0 109 -35 109 -90c0 -87 -110 -182 -220 -182c-67 0 -106 39 -106 90z" fill="currentColor"/>
</g>
<g transform="translate(69.8328, 12.7278)">
<rect x="-0.0650" y="-3.1718" width="0.1300" height="3.4856" ry="0.0400" fill="currentColor"/>
</g>
<g transform="translate(73.3926, 13.2278)">
<path transform="scale(0.0040, -0.0040)" d="M0 -46c0 91 116 182 217 182c63 0 109 -35 109 -90c0 -87 -110 -182 -220 -182c-67 0 -106 39 -106 90z" fill="currentColor"/>
</g>
<g transform="translate(74.6318, 12.7278)">
<rect x="-0.0650" y="-3.3414" width="0.1300" height="3.6552" ry="0.0400" fill="currentColor"/>
</g>
<g transform="translate(76.3999, 8.5338)">
<text font-family="serif" font-style="italic" font-size="1.7459" text-anchor="start" fill="currentColor">
<tspan>5</tspan>
</text>
</g>
<g transform="translate(77.8165, 12.7278)">
<path transform="scale(0.0040, -0.0040)" d="M0 -46c0 91 116 182 217 182c63 0 109 -35 109 -90c0 -87 -110 -182 -220 -182c-67 0 -106 39 -106 90z" fill="currentColor"/>
</g>
<g transform="translate(79.5707, 12.2278)">
<path transform="scale(0.0040, -0.0040)" d="M0 0c0 31 25 56 56 56s56 -25 56 -56s-25 -56 -56 -56s-56 25 -56 56z" fill="currentColor"/>
</g>
<g transform="translate(79.0557, 12.7278)">
<rect x="-0.0650" y="-3.4977" width="0.1300" height="3.3115" ry="0.0400" fill="currentColor"/>
</g>
<g transform="translate(74.5668, 8.0441)">
<line stroke-linejoin="round" stroke-linecap="round" stroke-width="0.1600" stroke="currentColor" x1="4.7538" y1="-0.1632" x2="4.7538" y2="0.5368"/>
</g>
<g transform="translate(74.5668, 8.0441)">
<line stroke-linejoin="round" stroke-linecap="round" stroke-width="0.1600" stroke="currentColor" x1="-0.1999" y1="0.0069" x2="-0.1999" y2="0.7069"/>
</g>
<g transform="translate(74.5668, 8.0441)">
<line stroke-linejoin="round" stroke-linecap="round" stroke-width="0.1600" stroke="currentColor" x1="4.7538" y1="-0.1632" x2="3.3202" y2="-0.1140"/>
</g>
<g transform="translate(74.5668, 8.0441)">
<line stroke-linejoin="round" stroke-linecap="round" stroke-width="0.1600" stroke="currentColor" x1="-0.1999" y1="0.0069" x2="1.4336" y2="-0.0492"/>
</g>
<g transform="translate(82.9220, 12.7278)">
<path transform="scale(0.0040, -0.0040)" d="M0 -46c0 91 116 182 217 182c63 0 109 -35 109 -90c0 -87 -110 -182 -220 -182c-67 0 -106 39 -106 90z" fill="currentColor"/>
</g>
<g transform="translate(82.9870, 12.7278)">
<rect x="-0.0650" y="0.1862" width="0.1300" height="3.6221" ry="0.0400" fill="currentColor"/>
</g>
<g transform="translate(68.5936, 12.7278)">
<path stroke-width="0.0800" stroke-linejoin="round" stroke-linecap="round" stroke="currentColor" fill="currentColor" d="M0.8521 1.2155C1.6822 2.0145 4.4210 2.0145 5.2511 1.2155L5.2511 1.2155C4.4210 1.8945 1.6822 1.8945 0.8521 1.2155z"/>
</g>
<g transform="translate(86.7804, 12.2278)">
<path transform="scale(0.0040, -0.0040)" d="M0 -46c0 91 116 182 217 182c63 0 109 -35 109 -90c0 -87 -110 -182 -220 -182c-67 0 -106 39 -106 90z" fill="currentColor"/>
</g>
<g transform="translate(86.8454, 12.7278)">
<rect x="-0.0650" y="-0.3138" width="0.1300" height="4.0199" ry="0.0400" fill="currentColor"/>
</g>
<g transform="translate(91.8038, 12.2278)">
<path transform="scale(0.0040, -0.0040)" d="M0 -46c0 91 116 182 217 182c63 0 109 -35 109 -90c0 -87 -110 -182 -220 -182c-67 0 -106 39 -106 90z" fill="currentColor"/>
</g>
<g transform="translate(91.8688, 12.7278)">
<rect x="-0.0650" y="-0.3138" width="0.1300" height="3.8869" ry="0.0400" fill="currentColor"/>
</g>
<g transform="translate(43.8640, 10.5378)">
<polygon stroke-linejoin="round" stroke-linecap="round" stroke-width="0.0800" fill="currentColor" stroke="currentColor" points="16.7708 -0.8200 16.7708 -0.4200 0.0400 0.2000 0.0400 -0.2000"/>
</g>
<g transform="translate(48.8874, 11.1625)">
<polygon stroke-linejoin="round" stroke-linecap="round" stroke-width="0.0800" fill="currentColor" stroke="currentColor" points="11.7474 -0.6347 11.7474 -0.2347 0.0400 0.2000 0.0400 -0.2000"/>
</g>
<g transform="translate(48.8874, 11.9725)">
<polygon stroke-linejoin="round" stroke-linecap="round" stroke-width="0.0800" fill="currentColor" stroke="currentColor" points="1.1250 -0.2430 1.1250 0.1570 0.0400 0.2000 0.0400 -0.2000"/>
</g>
<g transform="translate(94.4974, 12.2278)">
<path transform="scale(0.0040, -0.0040)" d="M0 -46c0 91 116 182 217 182c63 0 109 -35 109 -90c0 -87 -110 -182 -220 -182c-67 0 -106 39 -106 90z" fill="currentColor"/>
</g>
<g transform="translate(94.5624, 12.7278)">
<rect x="-0.0650" y="-0.3138" width="0.1300" height="3.8155" ry="0.0400" fill="currentColor"/>
</g>
<g transform="translate(59.3707, 12.7278)">
<path stroke-width="0.0800" stroke-linejoin="round" stroke-linecap="round" stroke="currentColor" fill="currentColor" d="M1.5042 1.2224C2.1140 1.8923 3.6141 1.8923 4.2240 1.2224L4.2240 1.2224C3.6141 1.7723 2.1140 1.7723 1.5042 1.2224z"/>
</g>
<g transform="translate(97.7564, 12.7278)">
<path transform="scale(0.0040, -0.0040)" d="M154 455c79 0 46 -98 91 -98c15 0 46 49 52 63c3 6 8 9 14 9s12 -3 14 -9l-216 -920c-8 -7 -18 -10 -28 -10s-19 3 -27 10l86 327c-35 -13 -71 -23 -108 -23c-58 0 -86 41 -86 80c0 36 24 71 71 71c79 0 46 -98 91 -98c17 0 54 54 59 71l39 149c-34 -12 -70 -23 -106 -23
c-58 0 -85 41 -85 80c0 36 24 71 71 71c79 0 45 -98 90 -98c16 0 52 51 56 68l40 151c-33 -12 -68 -22 -103 -22c-58 0 -86 41 -86 80c0 36 24 71 71 71z" fill="currentColor"/>
</g>
<g transform="translate(101.0112, 12.7278)">
<path transform="scale(0.0040, -0.0040)" d="M154 455c79 0 46 -98 91 -98c15 0 46 49 52 63c3 6 8 9 14 9s12 -3 14 -9l-216 -920c-8 -7 -18 -10 -28 -10s-19 3 -27 10l86 327c-35 -13 -71 -23 -108 -23c-58 0 -86 41 -86 80c0 36 24 71 71 71c79 0 46 -98 91 -98c17 0 54 54 59 71l39 149c-34 -12 -70 -23 -106 -23
c-58 0 -85 41 -85 80c0 36 24 71 71 71c79 0 45 -98 90 -98c16 0 52 51 56 68l40 151c-33 -12 -68 -22 -103 -22c-58 0 -86 41 -86 80c0 36 24 71 71 71z" fill="currentColor"/>
</g>
<g transform="translate(57.6133, 9.2398)">
<text font-family="serif" font-style="italic" font-size="1.7459" text-anchor="start" fill="currentColor">
<tspan>5</tspan>
</text>
</g>
<g transform="translate(104.2661, 12.7278)">
<path transform="scale(0.0040, -0.0040)" d="M154 455c79 0 46 -98 91 -98c15 0 46 49 52 63c3 6 8 9 14 9s12 -3 14 -9l-216 -920c-8 -7 -18 -10 -28 -10s-19 3 -27 10l86 327c-35 -13 -71 -23 -108 -23c-58 0 -86 41 -86 80c0 36 24 71 71 71c79 0 46 -98 91 -98c17 0 54 54 59 71l39 149c-34 -12 -70 -23 -106 -23
c-58 0 -85 41 -85 80c0 36 24 71 71 71c79 0 45 -98 90 -98c16 0 52 51 56 68l40 151c-33 -12 -68 -22 -103 -22c-58 0 -86 41 -86 80c0 36 24 71 71 71z" fill="currentColor"/>
</g>
<g transform="translate(55.4394, 8.7661)">
<line stroke-linejoin="round" stroke-linecap="round" stroke-width="0.1600" stroke="currentColor" x1="5.4353" y1="-0.1955" x2="5.4353" y2="0.5045"/>
</g>
<g transform="translate(55.4394, 8.7661)">
<line stroke-linejoin="round" stroke-linecap="round" stroke-width="0.1600" stroke="currentColor" x1="-0.1999" y1="0.0072" x2="-0.1999" y2="0.7072"/>
</g>
<g transform="translate(55.4394, 8.7661)">
<line stroke-linejoin="round" stroke-linecap="round" stroke-width="0.1600" stroke="currentColor" x1="5.4353" y1="-0.1955" x2="3.6609" y2="-0.1317"/>
</g>
<g transform="translate(55.4394, 8.7661)">
<line stroke-linejoin="round" stroke-linecap="round" stroke-width="0.1600" stroke="currentColor" x1="-0.1999" y1="0.0072" x2="1.7744" y2="-0.0638"/>
</g>
<g transform="translate(107.5209, 12.7278)">
<path transform="scale(0.0040, -0.0040)" d="M154 455c79 0 46 -98 91 -98c15 0 46 49 52 63c3 6 8 9 14 9s12 -3 14 -9l-216 -920c-8 -7 -18 -10 -28 -10s-19 3 -27 10l86 327c-35 -13 -71 -23 -108 -23c-58 0 -86 41 -86 80c0 36 24 71 71 71c79 0 46 -98 91 -98c17 0 54 54 59 71l39 149c-34 -12 -70 -23 -106 -23
c-58 0 -85 41 -85 80c0 36 24 71 71 71c79 0 45 -98 90 -98c16 0 52 51 56 68l40 151c-33 -12 -68 -22 -103 -22c-58 0 -86 41 -86 80c0 36 24 71 71 71z" fill="currentColor"/>
</g>
<g transform="translate(50.4068, 12.7278)">
<path stroke-width="0.0800" stroke-linejoin="round" stroke-linecap="round" stroke="currentColor" fill="currentColor" d="M1.5042 2.0000C2.0199 2.5979 3.1427 2.5979 3.6585 2.0000L3.6585 2.0000C3.1427 2.4779 2.0199 2.4779 1.5042 2.0000z"/>
</g>
<g transform="translate(31.3728, 12.7278)">
<path stroke-width="0.0800" stroke-linejoin="round" stroke-linecap="round" stroke="currentColor" fill="currentColor" d="M0.8521 3.5000C1.3525 4.0852 2.4208 4.0852 2.9212 3.5000L2.9212 3.5000C2.4208 3.9652 1.3525 3.9652 0.8521 3.5000z"/>
</g>
<g transform="translate(35.0161, 9.2740)">
<line stroke-linejoin="round" stroke-linecap="round" stroke-width="0.1600" stroke="currentColor" x1="5.9189" y1="-0.0789" x2="5.9189" y2="0.6211"/>
</g>
<g transform="translate(35.0161, 9.2740)">
<line stroke-linejoin="round" stroke-linecap="round" stroke-width="0.1600" stroke="currentColor" x1="-0.2000" y1="0.0027" x2="-0.2000" y2="0.7027"/>
</g>
<g transform="translate(35.0161, 9.2740)">
<line stroke-linejoin="round" stroke-linecap="round" stroke-width="0.1600" stroke="currentColor" x1="5.9189" y1="-0.0789" x2="3.9032" y2="-0.0520"/>
</g>
<g transform="translate(35.0161, 9.2740)">
<line stroke-linejoin="round" stroke-linecap="round" stroke-width="0.1600" stroke="currentColor" x1="-0.2000" y1="0.0027" x2="2.0157" y2="-0.0269"/>
</g>
<g transform="translate(37.4317, 9.8037)">
<text font-family="serif" font-style="italic" font-size="1.7459" text-anchor="start" fill="currentColor">
<tspan>5</tspan>
</text>
</g>
<g transform="translate(39.4308, 12.7278)">
<path stroke-width="0.0800" stroke-linejoin="round" stroke-linecap="round" stroke="currentColor" fill="currentColor" d="M0.8521 2.7500C1.4833 3.4348 3.0799 3.4348 3.7111 2.7500L3.7111 2.7500C3.0799 3.3148 1.4833 3.3148 0.8521 2.7500z"/>
</g>
<g transform="translate(43.8640, 9.1930)">
<line stroke-linejoin="round" stroke-linecap="round" stroke-width="0.1600" stroke="currentColor" x1="8.0468" y1="-0.2919" x2="8.0468" y2="0.4081"/>
</g>
<g transform="translate(43.8640, 9.1930)">
<line stroke-linejoin="round" stroke-linecap="round" stroke-width="0.1600" stroke="currentColor" x1="-0.1999" y1="0.0072" x2="-0.1999" y2="0.7072"/>
</g>
<g transform="translate(43.8640, 9.1930)">
<line stroke-linejoin="round" stroke-linecap="round" stroke-width="0.1600" stroke="currentColor" x1="8.0468" y1="-0.2919" x2="4.9667" y2="-0.1801"/>
</g>
<g transform="translate(43.8640, 9.1930)">
<line stroke-linejoin="round" stroke-linecap="round" stroke-width="0.1600" stroke="currentColor" x1="-0.1999" y1="0.0072" x2="3.0802" y2="-0.1117"/>
</g>
<g transform="translate(47.3436, 9.6185)">
<text font-family="serif" font-style="italic" font-size="1.7459" text-anchor="start" fill="currentColor">
<tspan>7</tspan>
</text>
</g>
<g transform="translate(26.8075, 10.7278)">
<polygon stroke-linejoin="round" stroke-linecap="round" stroke-width="0.0800" fill="currentColor" stroke="currentColor" points="13.8875 -0.3900 13.8875 0.0100 0.0400 0.2000 0.0400 -0.2000"/>
</g>
<g transform="translate(39.5700, 11.4270)">
<polygon stroke-linejoin="round" stroke-linecap="round" stroke-width="0.0800" fill="currentColor" stroke="currentColor" points="1.1250 -0.2159 1.1250 0.1841 0.0400 0.2000 0.0400 -0.2000"/>
</g>
<g transform="translate(26.8075, 11.6011)">
<polygon stroke-linejoin="round" stroke-linecap="round" stroke-width="0.0800" fill="currentColor" stroke="currentColor" points="5.8295 -0.2801 5.8295 0.1199 0.0400 0.2000 0.0400 -0.2000"/>
</g>
<g transform="translate(39.5700, 12.3003)">
<polygon stroke-linejoin="round" stroke-linecap="round" stroke-width="0.0800" fill="currentColor" stroke="currentColor" points="1.1250 -0.2159 1.1250 0.1841 0.0400 0.2000 0.0400 -0.2000"/>
</g>
<g transform="translate(31.5120, 12.4103)">
<polygon stroke-linejoin="round" stroke-linecap="round" stroke-width="0.0800" fill="currentColor" stroke="currentColor" points="1.1250 -0.2159 1.1250 0.1841 0.0400 0.2000 0.0400 -0.2000"/>
</g>
<g transform="translate(31.5120, 13.2836)">
<polygon stroke-linejoin="round" stroke-linecap="round" stroke-width="0.0800" fill="currentColor" stroke="currentColor" points="1.1250 -0.2159 1.1250 0.1841 0.0400 0.2000 0.0400 -0.2000"/>
</g>
<g transform="translate(42.6898, 12.7278)">
<path stroke-width="0.0800" stroke-linejoin="round" stroke-linecap="round" stroke="currentColor" fill="currentColor" d="M0.8521 2.7500C1.7064 3.5604 4.6212 3.5604 5.4755 2.7500L5.4755 2.7500C4.6212 3.4404 1.7064 3.4404 0.8521 2.7500z"/>
</g>
<g transform="translate(51.5735, 162.8440)">
<a xlink:href="https://lilypond.org">
<rect x="0.0000" y="-0.4748" width="16.3546" height="2.0024" fill="none" stroke="none" stroke-width="0.0"/>
</a>
</g>
<g transform="translate(51.5735, 162.8440)">
<text font-family="serif" font-size="2.2000" text-anchor="start" fill="currentColor">
<tspan>LilyPond v2.25.23</tspan>
</text>
</g>
</svg>
