<svg xmlns="http://www.w3.org/2000/svg" xmlns:xlink="http://www.w3.org/1999/xlink" version="1.2" width="210.00mm" height="297.00mm" viewBox="0.0000 -0.0000 119.5016 169.0094">
<style type="text/css">
<![CDATA[
tspan { white-space: pre; }
]]>
</style>
<g transform="translate(8.5358, 15.7278)">
<rect x="16.7501" y="-0.1000" width="1.9563" height="0.2000" ry="0.1000" fill="currentColor"/>
</g>
<g transform="translate(17.0717, 14.7278)">
<line stroke-linejoin="round" stroke-linecap="round" stroke-width="0.1000" stroke="currentColor" x1="0.0500" y1="0" x2="93.8441" y2="0"/>
</g>
<g transform="translate(17.0717, 13.7278)">
<line stroke-linejoin="round" stroke-linecap="round" stroke-width="0.1000" stroke="currentColor" x1="0.0500" y1="0" x2="93.8441" y2="0"/>
</g>
<g transform="translate(17.0717, 12.7278)">
<line stroke-linejoin="round" stroke-linecap="round" stroke-width="0.1000" stroke="currentColor" x1="0.0500" y1="0" x2="93.8441" y2="0"/>
</g>
<g transform="translate(17.0717, 11.7278)">
<line stroke-linejoin="round" stroke-linecap="round" stroke-width="0.1000" stroke="currentColor" x1="0.0500" y1="0" x2="93.8441" y2="0"/>
</g>
<g transform="translate(17.0717, 10.7278)">
<line stroke-linejoin="round" stroke-linecap="round" stroke-width="0.1000" stroke="currentColor" x1="0.0500" y1="0" x2="93.8441" y2="0"/>
</g>
<g transform="translate(110.7757, 12.7278)">
<rect x="0.0000" y="-2.0000" width="0.1900" height="4.0000" ry="0.0000" fill="currentColor"/>
</g>
<g transform="translate(98.0667, 14.6392)">
<polygon stroke-linejoin="round" stroke-linecap="round" stroke-width="0.0800" fill="currentColor" stroke="currentColor" points="1.1250 -0.2314 1.1250 0.1686 0.0400 0.2000 0.0400 -0.2000"/>
</g>
<g transform="translate(90.4897, 14.8435)">
<polygon stroke-linejoin="round" stroke-linecap="round" stroke-width="0.0800" fill="currentColor" stroke="currentColor" points="1.1250 -0.2314 1.1250 0.1686 0.0400 0.2000 0.0400 -0.2000"/>
</g>
<g transform="translate(98.0667, 15.4492)">
<polygon stroke-linejoin="round" stroke-linecap="round" stroke-width="0.0800" fill="currentColor" stroke="currentColor" points="1.1250 -0.2314 1.1250 0.1686 0.0400 0.2000 0.0400 -0.2000"/>
</g>
<g transform="translate(87.7362, 15.7278)">
<polygon stroke-linejoin="round" stroke-linecap="round" stroke-width="0.0800" fill="currentColor" stroke="currentColor" points="3.8785 -0.3057 3.8785 0.0943 0.0400 0.2000 0.0400 -0.2000"/>
</g>
<g transform="translate(87.7362, 16.5378)">
<polygon stroke-linejoin="round" stroke-linecap="round" stroke-width="0.0800" fill="currentColor" stroke="currentColor" points="11.4555 -0.5100 11.4555 -0.1100 0.0400 0.2000 0.0400 -0.2000"/>
</g>
<g transform="translate(25.6120, 15.7278)">
<path transform="scale(0.0040, -0.0040)" d="M0 -46c0 91 116 182 217 182c63 0 109 -35 109 -90c0 -87 -110 -182 -220 -182c-67 0 -106 39 -106 90z" fill="currentColor"/>
</g>
<g transform="translate(17.8717, 13.7278)">
<path transform="scale(0.0040, -0.0040)" d="M266 -635h-6c-108 0 -195 88 -195 197c0 58 53 103 112 103c54 0 95 -47 95 -103c0 -52 -43 -95 -95 -95c-11 0 -21 2 -31 6c26 -39 68 -65 117 -65h4zM401 151c19 -89 48 -242 60 -354c76 27 112 94 112 163c0 89 -60 179 -172 191zM74 28c0 -112 98 -247 278 -247
c21 0 44 2 68 6c-7 64 -29 203 -63 364c-79 -8 -124 -61 -124 -119c0 -44 25 -91 81 -123c5 -5 7 -10 7 -15c0 -11 -10 -22 -22 -22c-15 0 -126 62 -126 187c0 88 58 174 160 197c-14 58 -29 117 -46 175c-107 -121 -213 -243 -213 -403zM357 1194c28 0 143 -206 143 -361
c0 -143 -86 -255 -180 -364c21 -68 39 -138 56 -207c5 0 10 1 14 1c155 0 255 -129 255 -262c0 -113 -74 -212 -180 -245c3 -35 5 -70 5 -105c0 -19 -1 -39 -2 -58c-7 -119 -88 -225 -202 -228l1 43c93 2 153 92 159 191c1 18 2 37 2 55c0 31 -1 61 -4 92
c-28 -5 -55 -8 -80 -8c-239 0 -342 217 -342 374c0 177 131 306 248 441c-29 96 -52 170 -52 346c0 189 144 295 159 295zM247 782c0 -55 12 -115 35 -190c83 100 147 202 147 326c0 40 -6 82 -21 127c-49 -24 -161 -97 -161 -263z" fill="currentColor"/>
</g>
<g transform="translate(21.9567, 12.7278)">
<path transform="scale(0.0040, -0.0040)" d="M433 -89c0 -22 -50 -174 -183 -174c-59 0 -250 19 -250 263c0 62 18 262 250 262c116 0 176 -106 176 -163c0 -40 -30 -72 -67 -72c-31 0 -75 25 -75 75c0 38 27 77 72 77c4 0 9 0 14 -1c-28 37 -72 59 -120 59c-106 0 -113 -73 -113 -186v-51v-51
c0 -113 7 -187 113 -187c80 0 139 70 158 151c2 7 7 10 12 10c6 0 13 -4 13 -12z" fill="currentColor"/>
</g>
<g transform="translate(21.9567, 9.3632)">
<rect x="1.0449" y="-2.6727" width="0.1158" height="2.5129" ry="0.0193" fill="currentColor"/>
</g>
<g transform="translate(21.9567, 9.3632)">
<path transform="scale(0.0036, -0.0036)" d="M0 -45c0 92 113 182 214 182c64 0 112 -36 112 -92c0 -88 -108 -182 -217 -182c-68 0 -109 39 -109 92z" fill="currentColor"/>
</g>
<g transform="translate(23.1173, 9.8520)">
<text font-family="serif" font-size="2.2000" text-anchor="start" fill="currentColor">
<tspan> = 54</tspan>
</text>
</g>
<g transform="translate(27.3662, 15.2278)">
<path transform="scale(0.0040, -0.0040)" d="M0 0c0 31 25 56 56 56s56 -25 56 -56s-25 -56 -56 -56s-56 25 -56 56z" fill="currentColor"/>
</g>
<g transform="translate(28.2662, 15.2278)">
<path transform="scale(0.0040, -0.0040)" d="M0 0c0 31 25 56 56 56s56 -25 56 -56s-25 -56 -56 -56s-56 25 -56 56z" fill="currentColor"/>
</g>
<g transform="translate(26.8512, 12.7278)">
<rect x="-0.0650" y="-2.0008" width="0.1300" height="4.8146" ry="0.0400" fill="currentColor"/>
</g>
<g transform="translate(102.9777, 18.1373)">
<text font-family="serif" font-style="italic" font-size="1.7459" text-anchor="start" fill="currentColor">
<tspan>5</tspan>
</text>
</g>
<g transform="translate(31.2300, 15.2278)">
<path transform="scale(0.0040, -0.0040)" d="M0 -46c0 91 116 182 217 182c63 0 109 -35 109 -90c0 -87 -110 -182 -220 -182c-67 0 -106 39 -106 90z" fill="currentColor"/>
</g>
<g transform="translate(32.4692, 12.7278)">
<rect x="-0.0650" y="-2.0659" width="0.1300" height="4.3797" ry="0.0400" fill="currentColor"/>
</g>
<g transform="translate(99.1017, 17.5695)">
<line stroke-linejoin="round" stroke-linecap="round" stroke-width="0.1600" stroke="currentColor" x1="8.8398" y1="-0.0000" x2="8.8398" y2="-0.7000"/>
</g>
<g transform="translate(99.1017, 17.5695)">
<line stroke-linejoin="round" stroke-linecap="round" stroke-width="0.1600" stroke="currentColor" x1="-0.2000" y1="-0.0000" x2="-0.2000" y2="-0.7000"/>
</g>
<g transform="translate(99.1017, 17.5695)">
<line stroke-linejoin="round" stroke-linecap="round" stroke-width="0.1600" stroke="currentColor" x1="8.8398" y1="-0.0000" x2="5.3637" y2="-0.0000"/>
</g>
<g transform="translate(99.1017, 17.5695)">
<line stroke-linejoin="round" stroke-linecap="round" stroke-width="0.1600" stroke="currentColor" x1="-0.2000" y1="-0.0000" x2="3.4760" y2="-0.0000"/>
</g>
<g transform="translate(33.6672, 15.2278)">
<path transform="scale(0.0040, -0.0040)" d="M0 -46c0 91 116 182 217 182c63 0 109 -35 109 -90c0 -87 -110 -182 -220 -182c-67 0 -106 39 -106 90z" fill="currentColor"/>
</g>
<g transform="translate(35.4214, 15.2278)">
<path transform="scale(0.0040, -0.0040)" d="M0 0c0 31 25 56 56 56s56 -25 56 -56s-25 -56 -56 -56s-56 25 -56 56z" fill="currentColor"/>
</g>
<g transform="translate(34.9064, 12.7278)">
<rect x="-0.0650" y="-2.0941" width="0.1300" height="4.4079" ry="0.0400" fill="currentColor"/>
</g>
<g transform="translate(94.1802, 12.7278)">
<path stroke-width="0.0800" stroke-linejoin="round" stroke-linecap="round" stroke="currentColor" fill="currentColor" d="M0.8521 -1.2135C1.6955 -2.0188 4.5302 -2.0188 5.3736 -1.2135L5.3736 -1.2135C4.5302 -1.8988 1.6955 -1.8988 0.8521 -1.2135z"/>
</g>
<g transform="translate(38.6684, 15.2278)">
<path transform="scale(0.0040, -0.0040)" d="M0 -46c0 91 116 182 217 182c63 0 109 -35 109 -90c0 -87 -110 -182 -220 -182c-67 0 -106 39 -106 90z" fill="currentColor"/>
</g>
<g transform="translate(39.9076, 12.7278)">
<rect x="-0.0650" y="-2.1521" width="0.1300" height="4.4659" ry="0.0400" fill="currentColor"/>
</g>
<g transform="translate(41.8739, 14.7278)">
<path transform="scale(0.0040, -0.0040)" d="M0 -46c0 91 116 182 217 182c63 0 109 -35 109 -90c0 -87 -110 -182 -220 -182c-67 0 -106 39 -106 90z" fill="currentColor"/>
</g>
<g transform="translate(43.1131, 12.7278)">
<rect x="-0.0650" y="-2.1892" width="0.1300" height="4.0030" ry="0.0400" fill="currentColor"/>
</g>
<g transform="translate(91.5247, 12.7278)">
<path stroke-width="0.0800" stroke-linejoin="round" stroke-linecap="round" stroke="currentColor" fill="currentColor" d="M0.8521 -1.2250C1.3856 -1.8374 2.5741 -1.8374 3.1076 -1.2250L3.1076 -1.2250C2.5741 -1.7174 1.3856 -1.7174 0.8521 -1.2250z"/>
</g>
<g transform="translate(45.0794, 14.7278)">
<path transform="scale(0.0040, -0.0040)" d="M0 -46c0 91 116 182 217 182c63 0 109 -35 109 -90c0 -87 -110 -182 -220 -182c-67 0 -106 39 -106 90z" fill="currentColor"/>
</g>
<g transform="translate(46.8336, 14.2278)">
<path transform="scale(0.0040, -0.0040)" d="M0 0c0 31 25 56 56 56s56 -25 56 -56s-25 -56 -56 -56s-56 25 -56 56z" fill="currentColor"/>
</g>
<g transform="translate(46.3186, 12.7278)">
<rect x="-0.0650" y="-1.0031" width="0.1300" height="2.8169" ry="0.0400" fill="currentColor"/>
</g>
<g transform="translate(49.5306, 14.7278)">
<path transform="scale(0.0040, -0.0040)" d="M0 -46c0 91 116 182 217 182c63 0 109 -35 109 -90c0 -87 -110 -182 -220 -182c-67 0 -106 39 -106 90z" fill="currentColor"/>
</g>
<g transform="translate(50.7698, 12.7278)">
<rect x="-0.0650" y="-1.2132" width="0.1300" height="3.0270" ry="0.0400" fill="currentColor"/>
</g>
<g transform="translate(67.6215, 9.7278)">
<polygon stroke-linejoin="round" stroke-linecap="round" stroke-width="0.0800" fill="currentColor" stroke="currentColor" points="17.0404 -0.7000 17.0404 -0.3000 0.0400 0.2000 0.0400 -0.2000"/>
</g>
<g transform="translate(67.6215, 10.5378)">
<polygon stroke-linejoin="round" stroke-linecap="round" stroke-width="0.0800" fill="currentColor" stroke="currentColor" points="17.0404 -0.7000 17.0404 -0.3000 0.0400 0.2000 0.0400 -0.2000"/>
</g>
<g transform="translate(80.3315, 10.9757)">
<polygon stroke-linejoin="round" stroke-linecap="round" stroke-width="0.0800" fill="currentColor" stroke="currentColor" points="1.1250 -0.2341 1.1250 0.1659 0.0400 0.2000 0.0400 -0.2000"/>
</g>
<g transform="translate(53.3191, 14.2278)">
<path transform="scale(0.0040, -0.0040)" d="M0 -46c0 91 116 182 217 182c63 0 109 -35 109 -90c0 -87 -110 -182 -220 -182c-67 0 -106 39 -106 90z" fill="currentColor"/>
</g>
<g transform="translate(54.5583, 12.7278)">
<rect x="-0.0650" y="-1.3920" width="0.1300" height="2.7058" ry="0.0400" fill="currentColor"/>
</g>
<g transform="translate(90.5794, 18.3587)">
<text font-family="serif" font-style="italic" font-size="1.7459" text-anchor="start" fill="currentColor">
<tspan>7</tspan>
</text>
</g>
<g transform="translate(57.1076, 14.2278)">
<path transform="scale(0.0040, -0.0040)" d="M0 -46c0 91 116 182 217 182c63 0 109 -35 109 -90c0 -87 -110 -182 -220 -182c-67 0 -106 39 -106 90z" fill="currentColor"/>
</g>
<g transform="translate(58.8618, 14.2278)">
<path transform="scale(0.0040, -0.0040)" d="M0 0c0 31 25 56 56 56s56 -25 56 -56s-25 -56 -56 -56s-56 25 -56 56z" fill="currentColor"/>
</g>
<g transform="translate(58.3468, 12.7278)">
<rect x="-0.0650" y="-1.5709" width="0.1300" height="2.8847" ry="0.0400" fill="currentColor"/>
</g>
<g transform="translate(87.7362, 17.8777)">
<line stroke-linejoin="round" stroke-linecap="round" stroke-width="0.1600" stroke="currentColor" x1="6.7739" y1="-0.1791" x2="6.7739" y2="-0.8791"/>
</g>
<g transform="translate(87.7362, 17.8777)">
<line stroke-linejoin="round" stroke-linecap="round" stroke-width="0.1600" stroke="currentColor" x1="-0.1999" y1="0.0053" x2="-0.1999" y2="-0.6947"/>
</g>
<g transform="translate(87.7362, 17.8777)">
<line stroke-linejoin="round" stroke-linecap="round" stroke-width="0.1600" stroke="currentColor" x1="6.7739" y1="-0.1791" x2="4.3305" y2="-0.1145"/>
</g>
<g transform="translate(87.7362, 17.8777)">
<line stroke-linejoin="round" stroke-linecap="round" stroke-width="0.1600" stroke="currentColor" x1="-0.1999" y1="0.0053" x2="2.4434" y2="-0.0646"/>
</g>
<g transform="translate(62.1089, 13.7278)">
<path transform="scale(0.0040, -0.0040)" d="M0 -46c0 91 116 182 217 182c63 0 109 -35 109 -90c0 -87 -110 -182 -220 -182c-67 0 -106 39 -106 90z" fill="currentColor"/>
</g>
<g transform="translate(63.3481, 12.7278)">
<rect x="-0.0650" y="-1.8069" width="0.1300" height="2.6207" ry="0.0400" fill="currentColor"/>
</g>
<g transform="translate(83.3978, 12.7278)">
<path stroke-width="0.0800" stroke-linejoin="round" stroke-linecap="round" stroke="currentColor" fill="currentColor" d="M1.6392 -0.2388C2.2138 -0.8831 3.5639 -0.8831 4.1385 -0.2388L4.1385 -0.2388C3.5639 -0.7631 2.2138 -0.7631 1.6392 -0.2388z"/>
</g>
<g transform="translate(66.4473, 13.7278)">
<path transform="scale(0.0040, -0.0040)" d="M0 -46c0 91 116 182 217 182c63 0 109 -35 109 -90c0 -87 -110 -182 -220 -182c-67 0 -106 39 -106 90z" fill="currentColor"/>
</g>
<g transform="translate(67.6865, 12.7278)">
<rect x="-0.0650" y="-3.0019" width="0.1300" height="3.8157" ry="0.0400" fill="currentColor"/>
</g>
<g transform="translate(71.1506, 13.2278)">
<path transform="scale(0.0040, -0.0040)" d="M0 -46c0 91 116 182 217 182c63 0 109 -35 109 -90c0 -87 -110 -182 -220 -182c-67 0 -106 39 -106 90z" fill="currentColor"/>
</g>
<g transform="translate(72.3898, 12.7278)">
<rect x="-0.0650" y="-3.1396" width="0.1300" height="3.4534" ry="0.0400" fill="currentColor"/>
</g>
<g transform="translate(80.1923, 12.7278)">
<path stroke-width="0.0800" stroke-linejoin="round" stroke-linecap="round" stroke="currentColor" fill="currentColor" d="M1.5042 0.2250C1.8941 0.7088 2.6156 0.7088 3.0055 0.2250L3.0055 0.2250C2.6156 0.5888 1.8941 0.5888 1.5042 0.2250z"/>
</g>
<g transform="translate(75.8538, 13.2278)">
<path transform="scale(0.0040, -0.0040)" d="M0 -46c0 91 116 182 217 182c63 0 109 -35 109 -90c0 -87 -110 -182 -220 -182c-67 0 -106 39 -106 90z" fill="currentColor"/>
</g>
<g transform="translate(77.0930, 12.7278)">
<rect x="-0.0650" y="-3.2773" width="0.1300" height="3.5911" ry="0.0400" fill="currentColor"/>
</g>
<g transform="translate(80.1923, 12.7278)">
<path transform="scale(0.0040, -0.0040)" d="M0 -46c0 91 116 182 217 182c63 0 109 -35 109 -90c0 -87 -110 -182 -220 -182c-67 0 -106 39 -106 90z" fill="currentColor"/>
</g>
<g transform="translate(81.4315, 12.7278)">
<rect x="-0.0650" y="-3.4043" width="0.1300" height="3.2181" ry="0.0400" fill="currentColor"/>
</g>
<g transform="translate(80.4211, 8.5660)">
<text font-family="serif" font-style="italic" font-size="1.7459" text-anchor="start" fill="currentColor">
<tspan>5</tspan>
</text>
</g>
<g transform="translate(83.3978, 12.7278)">
<path transform="scale(0.0040, -0.0040)" d="M0 -46c0 91 116 182 217 182c63 0 109 -35 109 -90c0 -87 -110 -182 -220 -182c-67 0 -106 39 -106 90z" fill="currentColor"/>
</g>
<g transform="translate(84.6370, 12.7278)">
<rect x="-0.0650" y="-3.4981" width="0.1300" height="3.3119" ry="0.0400" fill="currentColor"/>
</g>
<g transform="translate(77.0280, 8.1086)">
<line stroke-linejoin="round" stroke-linecap="round" stroke-width="0.1600" stroke="currentColor" x1="7.8739" y1="-0.2266" x2="7.8739" y2="0.4734"/>
</g>
<g transform="translate(77.0280, 8.1086)">
<line stroke-linejoin="round" stroke-linecap="round" stroke-width="0.1600" stroke="currentColor" x1="-0.1999" y1="0.0058" x2="-0.1999" y2="0.7058"/>
</g>
<g transform="translate(77.0280, 8.1086)">
<line stroke-linejoin="round" stroke-linecap="round" stroke-width="0.1600" stroke="currentColor" x1="7.8739" y1="-0.2266" x2="4.8804" y2="-0.1404"/>
</g>
<g transform="translate(77.0280, 8.1086)">
<line stroke-linejoin="round" stroke-linecap="round" stroke-width="0.1600" stroke="currentColor" x1="-0.1999" y1="0.0058" x2="2.9935" y2="-0.0861"/>
</g>
<g transform="translate(87.7362, 12.7278)">
<path transform="scale(0.0040, -0.0040)" d="M0 -46c0 91 116 182 217 182c63 0 109 -35 109 -90c0 -87 -110 -182 -220 -182c-67 0 -106 39 -106 90z" fill="currentColor"/>
</g>
<g transform="translate(87.8012, 12.7278)">
<rect x="-0.0650" y="0.1862" width="0.1300" height="3.6220" ry="0.0400" fill="currentColor"/>
</g>
<g transform="translate(71.1506, 12.7278)">
<path stroke-width="0.0800" stroke-linejoin="round" stroke-linecap="round" stroke="currentColor" fill="currentColor" d="M0.8521 1.2172C1.6715 2.0110 4.3359 2.0110 5.1553 1.2172L5.1553 1.2172C4.3359 1.8910 1.6715 1.8910 0.8521 1.2172z"/>
</g>
<g transform="translate(91.5247, 12.2278)">
<path transform="scale(0.0040, -0.0040)" d="M0 -46c0 91 116 182 217 182c63 0 109 -35 109 -90c0 -87 -110 -182 -220 -182c-67 0 -106 39 -106 90z" fill="currentColor"/>
</g>
<g transform="translate(91.5897, 12.7278)">
<rect x="-0.0650" y="-0.3138" width="0.1300" height="4.0199" ry="0.0400" fill="currentColor"/>
</g>
<g transform="translate(94.1802, 12.2278)">
<path transform="scale(0.0040, -0.0040)" d="M0 -46c0 91 116 182 217 182c63 0 109 -35 109 -90c0 -87 -110 -182 -220 -182c-67 0 -106 39 -106 90z" fill="currentColor"/>
</g>
<g transform="translate(94.2452, 12.7278)">
<rect x="-0.0650" y="-0.3138" width="0.1300" height="3.9483" ry="0.0400" fill="currentColor"/>
</g>
<g transform="translate(46.2536, 11.7278)">
<polygon stroke-linejoin="round" stroke-linecap="round" stroke-width="0.0800" fill="currentColor" stroke="currentColor" points="17.1195 -1.0100 17.1195 -0.6100 0.0400 0.2000 0.0400 -0.2000"/>
</g>
<g transform="translate(46.2536, 12.5378)">
<polygon stroke-linejoin="round" stroke-linecap="round" stroke-width="0.0800" fill="currentColor" stroke="currentColor" points="17.1195 -1.0100 17.1195 -0.6100 0.0400 0.2000 0.0400 -0.2000"/>
</g>
<g transform="translate(99.1017, 12.2278)">
<path transform="scale(0.0040, -0.0040)" d="M0 -46c0 91 116 182 217 182c63 0 109 -35 109 -90c0 -87 -110 -182 -220 -182c-67 0 -106 39 -106 90z" fill="currentColor"/>
</g>
<g transform="translate(99.1667, 12.7278)">
<rect x="-0.0650" y="-0.3138" width="0.1300" height="3.8156" ry="0.0400" fill="currentColor"/>
</g>
<g transform="translate(62.1089, 12.7278)">
<path stroke-width="0.0800" stroke-linejoin="round" stroke-linecap="round" stroke="currentColor" fill="currentColor" d="M1.5042 1.2241C2.1006 1.8844 3.5421 1.8844 4.1385 1.2241L4.1385 1.2241C3.5421 1.7644 2.1006 1.7644 1.5042 1.2241z"/>
</g>
<g transform="translate(102.3072, 12.7278)">
<path transform="scale(0.0040, -0.0040)" d="M125 205c79 0 45 -98 90 -98c15 0 50 49 57 63c3 6 8 9 14 9s12 -3 14 -9l-179 -670c-8 -7 -17 -10 -27 -10s-20 3 -28 10l101 327c-34 -12 -70 -23 -106 -23c-58 0 -86 41 -86 80c0 36 24 71 71 71c79 0 46 -98 91 -98c16 0 55 51 60 68l46 151
c-34 -12 -68 -22 -104 -22c-58 0 -85 41 -85 80c0 36 24 71 71 71z" fill="currentColor"/>
</g>
<g transform="translate(106.5415, 12.7278)">
<path transform="scale(0.0040, -0.0040)" d="M125 205c79 0 45 -98 90 -98c15 0 50 49 57 63c3 6 8 9 14 9s12 -3 14 -9l-179 -670c-8 -7 -17 -10 -27 -10s-20 3 -28 10l101 327c-34 -12 -70 -23 -106 -23c-58 0 -86 41 -86 80c0 36 24 71 71 71c79 0 46 -98 91 -98c16 0 55 51 60 68l46 151
c-34 -12 -68 -22 -104 -22c-58 0 -85 41 -85 80c0 36 24 71 71 71z" fill="currentColor"/>
</g>
<g transform="translate(60.4036, 10.2637)">
<text font-family="serif" font-style="italic" font-size="1.7459" text-anchor="start" fill="currentColor">
<tspan>5</tspan>
</text>
</g>
<g transform="translate(31.2300, 12.7278)">
<path stroke-width="0.0800" stroke-linejoin="round" stroke-linecap="round" stroke="currentColor" fill="currentColor" d="M0.8521 3.5000C1.3467 4.0802 2.3947 4.0802 2.8893 3.5000L2.8893 3.5000C2.3947 3.9602 1.3467 3.9602 0.8521 3.5000z"/>
</g>
<g transform="translate(34.8414, 9.2929)">
<line stroke-linejoin="round" stroke-linecap="round" stroke-width="0.1600" stroke="currentColor" x1="8.5367" y1="-0.0974" x2="8.5367" y2="0.6026"/>
</g>
<g transform="translate(34.8414, 9.2929)">
<line stroke-linejoin="round" stroke-linecap="round" stroke-width="0.1600" stroke="currentColor" x1="-0.2000" y1="0.0023" x2="-0.2000" y2="0.7023"/>
</g>
<g transform="translate(34.8414, 9.2929)">
<line stroke-linejoin="round" stroke-linecap="round" stroke-width="0.1600" stroke="currentColor" x1="8.5367" y1="-0.0974" x2="5.2122" y2="-0.0595"/>
</g>
<g transform="translate(34.8414, 9.2929)">
<line stroke-linejoin="round" stroke-linecap="round" stroke-width="0.1600" stroke="currentColor" x1="-0.2000" y1="0.0023" x2="3.3246" y2="-0.0379"/>
</g>
<g transform="translate(38.5659, 9.8132)">
<text font-family="serif" font-style="italic" font-size="1.7459" text-anchor="start" fill="currentColor">
<tspan>5</tspan>
</text>
</g>
<g transform="translate(33.6672, 12.7278)">
<path stroke-width="0.0800" stroke-linejoin="round" stroke-linecap="round" stroke="currentColor" fill="currentColor" d="M1.5042 3.0000C2.1985 3.7255 4.1069 3.7255 4.8013 3.0000L4.8013 3.0000C4.1069 3.6055 2.1985 3.6055 1.5042 3.0000z"/>
</g>
<g transform="translate(41.8739, 12.7278)">
<path stroke-width="0.0800" stroke-linejoin="round" stroke-linecap="round" stroke="currentColor" fill="currentColor" d="M0.8521 2.7500C1.4752 3.4292 3.0345 3.4292 3.6576 2.7500L3.6576 2.7500C3.0345 3.3092 1.4752 3.3092 0.8521 2.7500z"/>
</g>
<g transform="translate(46.2536, 10.3817)">
<line stroke-linejoin="round" stroke-linecap="round" stroke-width="0.1600" stroke="currentColor" x1="8.5695" y1="-0.3982" x2="8.5695" y2="0.3018"/>
</g>
<g transform="translate(46.2536, 10.3817)">
<line stroke-linejoin="round" stroke-linecap="round" stroke-width="0.1600" stroke="currentColor" x1="-0.1998" y1="0.0093" x2="-0.1998" y2="0.7093"/>
</g>
<g transform="translate(46.2536, 10.3817)">
<line stroke-linejoin="round" stroke-linecap="round" stroke-width="0.1600" stroke="currentColor" x1="8.5695" y1="-0.3982" x2="5.2276" y2="-0.2429"/>
</g>
<g transform="translate(46.2536, 10.3817)">
<line stroke-linejoin="round" stroke-linecap="round" stroke-width="0.1600" stroke="currentColor" x1="-0.1998" y1="0.0093" x2="3.3419" y2="-0.1553"/>
</g>
<g transform="translate(49.9946, 10.7550)">
<text font-family="serif" font-style="italic" font-size="1.7459" text-anchor="start" fill="currentColor">
<tspan>7</tspan>
</text>
</g>
<g transform="translate(26.7862, 10.7278)">
<polygon stroke-linejoin="round" stroke-linecap="round" stroke-width="0.0800" fill="currentColor" stroke="currentColor" points="16.3519 -0.3900 16.3519 0.0100 0.0400 0.2000 0.0400 -0.2000"/>
</g>
<g transform="translate(26.7862, 11.6011)">
<polygon stroke-linejoin="round" stroke-linecap="round" stroke-width="0.0800" fill="currentColor" stroke="currentColor" points="16.3519 -0.3900 16.3519 0.0100 0.0400 0.2000 0.0400 -0.2000"/>
</g>
<g transform="translate(39.8426, 12.3231)">
<polygon stroke-linejoin="round" stroke-linecap="round" stroke-width="0.0800" fill="currentColor" stroke="currentColor" points="3.2955 -0.2387 3.2955 0.1613 0.0400 0.2000 0.0400 -0.2000"/>
</g>
<g transform="translate(31.3692, 12.4213)">
<polygon stroke-linejoin="round" stroke-linecap="round" stroke-width="0.0800" fill="currentColor" stroke="currentColor" points="1.1250 -0.2135 1.1250 0.1865 0.0400 0.2000 0.0400 -0.2000"/>
</g>
<g transform="translate(31.3692, 13.2946)">
<polygon stroke-linejoin="round" stroke-linecap="round" stroke-width="0.0800" fill="currentColor" stroke="currentColor" points="1.1250 -0.2135 1.1250 0.1865 0.0400 0.2000 0.0400 -0.2000"/>
</g>
<g transform="translate(45.0794, 12.7278)">
<path stroke-width="0.0800" stroke-linejoin="round" stroke-linecap="round" stroke="currentColor" fill="currentColor" d="M0.8521 2.7500C1.6425 3.5293 4.1130 3.5293 4.9034 2.7500L4.9034 2.7500C4.1130 3.4093 1.6425 3.4093 0.8521 2.7500z"/>
</g>
<g transform="translate(53.3191, 12.7278)">
<path stroke-width="0.0800" stroke-linejoin="round" stroke-linecap="round" stroke="currentColor" fill="currentColor" d="M1.5042 2.0000C2.0074 2.5875 3.0853 2.5875 3.5885 2.0000L3.5885 2.0000C3.0853 2.4675 2.0074 2.4675 1.5042 2.0000z"/>
</g>
<g transform="translate(58.2818, 9.8139)">
<line stroke-linejoin="round" stroke-linecap="round" stroke-width="0.1600" stroke="currentColor" x1="5.3310" y1="-0.2453" x2="5.3310" y2="0.4547"/>
</g>
<g transform="translate(58.2818, 9.8139)">
<line stroke-linejoin="round" stroke-linecap="round" stroke-width="0.1600" stroke="currentColor" x1="-0.1998" y1="0.0092" x2="-0.1998" y2="0.7092"/>
</g>
<g transform="translate(58.2818, 9.8139)">
<line stroke-linejoin="round" stroke-linecap="round" stroke-width="0.1600" stroke="currentColor" x1="5.3310" y1="-0.2453" x2="3.6084" y2="-0.1660"/>
</g>
<g transform="translate(58.2818, 9.8139)">
<line stroke-linejoin="round" stroke-linecap="round" stroke-width="0.1600" stroke="currentColor" x1="-0.1998" y1="0.0092" x2="1.7227" y2="-0.0793"/>
</g>
<g transform="translate(51.5735, 162.8440)">
<a xlink:href="https://lilypond.org">
<rect x="0.0000" y="-0.4748" width="16.3546" height="2.0024" fill="none" stroke="none" stroke-width="0.0"/>
</a>
</g>
<g transform="translate(51.5735, 162.8440)">
<text font-family="serif" font-size="2.2000" text-anchor="start" fill="currentColor">
<tspan>LilyPond v2.25.23</tspan>
</text>
</g>
</svg>
